<?xml version="1.0" encoding="UTF-8"?>
<svg id="Layer_1" data-name="Layer 1" xmlns="http://www.w3.org/2000/svg" viewBox="0 0 1036.18 672.28">
  <defs>
    <style>
      .cls-1 {
        fill: #fff;
      }
    </style>
  </defs>
  <path class="cls-1" d="M902.29,306.07c4.92,5.21,21.93,5.63,28.63,15.08,6.21,8.75,7.37,28.4,9.09,39.13,41.73,7.49,78.11,43.92,89.35,84.44,8.09,29.16,8.17,137.6,4.42,170.02-4.22,36.39-37.86,56.94-72.54,57.53l-888.25-.02c-34.83-1.39-67.31-22.69-70.65-59.42-3.36-37-2.91-106.35.02-143.7,3.99-50.92,43.31-99.52,94.09-108.85,1.71-10.73,2.88-30.38,9.08-39.13,6.71-9.45,23.71-9.87,28.63-15.08,3.25-3.44,4.17-25.08,6.63-32.63,14.56-44.88,79.54-46.48,118.38-43.01,46.06,4.11,70.34,28.38,72.74,74.72,2.03,3.32,16.99,7,21.95,10,19.92,12.04,12.16,49.73,22.13,67.58,92.96,12.69,187.87,10.41,281.39,1.39,2.61-.97,5.24-2.05,6.23-4.98,2.98-8.81,2.96-28.32,5.54-39.31,6.21-26.53,12.36-23.58,35.4-34.67,4.12-26.98,7.18-50.43,34.18-63.95,37.83-18.94,133.71-19.4,154.41,25.8,4.36,9.53,6.11,35.86,9.16,39.07ZM208.27,253.44c-11.46,1.37-30.47,6.9-38.53,15.29-16.09,16.75-1.53,41.61-25.27,57.7-7.96,5.4-18.66,4.92-21.7,14.18-6.51,19.86-14.17,85.29-12.64,106.14,2.05,28.01,14.89,59.81,28,84.09,2.56-2.07,4.47-4.46,6.06-7.35,17.9-32.46,20.5-69.7,45.67-104.58,46.59-64.56,82.09-17.85,106.75,34.22,4.92,10.39,26.47,77.71,32.13,77.71,23.74-41.41,30.48-79.11,25.5-126.37-1.1-10.43-7.84-61.41-11.28-67.21-2.61-4.39-16.24-7.55-21.92-11.72-21.86-16.03-8.6-40.87-23.92-56.81-17.11-17.8-65.76-18.05-88.85-15.29ZM777.88,253.44c-11.47,1.37-30.46,6.9-38.53,15.29-15.32,15.93-2.05,40.79-23.92,56.81-5.67,4.15-16.59,6.39-19.96,9.19-4.4,3.66-12.18,59.66-13.24,69.73-4.26,40.4-1.19,68.08,15.02,105.51,1.85,4.28,6.4,15.98,8.25,18.67,2.42,3.52,3.58,1.33,5.62-1.1,9.03-10.7,20.66-57.33,28.75-74.41,7.86-16.6,29.29-51.49,44.49-60.91,37.16-23.03,69,33.16,81.87,60.9,4.73,10.21,26.82,77.71,32.13,77.71,17.65-31.9,30.1-69.6,28.01-106.45-1.59-28.01-8.97-59.33-13.78-87.13-2.55-4.35-15.16-7.15-20.57-10.82-23.75-16.11-9.17-40.94-25.27-57.7-17.1-17.8-65.77-18.05-88.85-15.29ZM92.14,385.14c-36.78,11.01-63.2,46.57-66.99,84.36-3.15,31.45-4.05,112.34.31,142.66,2.5,17.37,15.7,30.58,32.47,34.81l914.51.63c18.72-.86,34.3-15.47,38.61-33.15-1.72-45.62,4.14-95.72.62-140.82-2.77-35.45-28.47-78.05-64.06-88.45-3.66-1.07-3.43.34-3.38,3.35.37,20.87,6.42,39.72,4.53,62.71-1.8,21.92-16.36,69.95-28.2,88.42-10.53,16.43-32.38,18.53-44.52,2.31-12.76-17.05-23.23-65.67-35.97-89.62-5.03-9.46-24.64-40.45-34.24-42.24-13.43-2.51-33.09,29.73-39.07,40.78-13.53,24.98-23.3,73-36.75,91.07-4.77,6.4-14.15,11.85-22.24,11.51-17.24-.73-24.7-18.98-30.71-32.29-15.65-34.64-24.16-75.75-17.55-113.63l-99.71,6.81c-57.11,3.28-113.68-4.29-170.42-6.93-4.12-.19-8.33.3-12.43.12,6.83,38.01-2.21,80.33-18.27,115.16-9.53,20.68-29.18,47.01-51.29,20.53-12.64-15.14-25.04-68.95-37.71-92.35-5.43-10.03-25.13-41.69-37.19-41.13-14.91,6.51-27.6,26.83-35.34,41.13-13.28,24.51-23.73,73.66-36.75,91.07-9.14,12.22-22.53,14.47-35.36,6.48-12.64-7.87-25.87-46.71-30.02-61.92-9.61-35.22-8.77-65.59-2.89-101.39Z"/>
  <path class="cls-1" d="M374.74,59.94l16.99-28.94c37.91-54.89,82.68-16.87,125.48-15.82,14.6.36,40.01-10.81,56.28-13.19,44.26-6.48,73.31,20.39,87.15,60.24C670.76,29.49,699.71-.97,736.28.02c20.49.55,49.14,15.61,67.79,15.16,13.59-.33,35.64-10.05,50.44-12.51,90.33-15.06,114.84,94.84,79.07,159.8-10.68,19.4-54.05,1.41-73.67-1.27-37.69-5.15-76.04-5.15-113.73,0-16.41,2.24-55.1,15.28-67.34,8.39-9.76-5.49-15.76-40.18-18.2-40.13-7.27,14.14-7.39,41.06-26.92,42.74-15.49,1.33-54.58-11.2-74.29-13.27-31.8-3.34-66.42-2.23-98.08,2.26-16.24,2.3-55.01,15.34-67.32,8.41-9.31-5.24-13.2-30.34-18.2-40.13-2.44-.04-8.44,34.64-18.2,40.13-12.16,6.85-51.01-6.1-67.34-8.39-37.8-5.31-75.91-5.17-113.73,0-16.07,2.2-53.49,14.52-65.91,9.2-10.76-4.62-21.86-47.84-22.95-60.01C83.29,61.33,107.61.18,164.66.28c22.06.04,50.49,15.37,69.8,14.9,18.73-.46,45.44-14.61,65.74-15.16,35.21-.95,64.66,27.86,74.54,59.92ZM154.36,24.62c-48.38,8.37-54.29,89.63-30.92,124.03,72.03-18.72,146.91-19.33,218.87.36l2.11-1.45c16.23-33.13,19.53-80.86-7.73-109-32.31-33.35-70.82.81-106.67-.92-24.63-1.19-49.56-17.54-75.66-13.02ZM439.16,24.62c-48.18,8.33-54.3,89.76-30.92,124.03,72.03-18.37,146.97-19.75,218.87.36l2.11-1.44c16.15-33.43,19.88-80.52-7.73-109-32.32-33.35-70.81.81-106.67-.92-24.63-1.19-49.56-17.53-75.66-13.02ZM723.97,24.62c-48.05,8.31-54.24,89.86-30.92,124.03,72.19-17.85,146.93-20.03,218.87.36l2.11-1.44c16.15-33.43,19.88-80.52-7.73-109-32.32-33.35-70.81.81-106.67-.92-24.63-1.19-49.56-17.53-75.66-13.02Z"/>
  <path class="cls-1" d="M529.45,297.67l19.06-13.68c32.31,9.26-17.97,43.75-29.5,53.59-5.74.54-40.94-34.21-42.49-39.84-1.67-6.08,4.69-14.12,11.45-13.75l19.06,13.68v-79.61c0-8.41,22.43-8.41,22.43,0v79.61Z"/>
</svg>