<?xml version="1.0" encoding="UTF-8"?>
<svg id="Layer_1" data-name="Layer 1" xmlns="http://www.w3.org/2000/svg" viewBox="0 0 1038.11 575.44">
  <defs>
    <style>
      .cls-1 {
        fill: #fff;
      }
    </style>
  </defs>
  <path class="cls-1" d="M55.38,143.64C67.46,19.79,172.1-35.82,281.01,26.29c17.43-4.02,32.11-14.05,49.21-19.12,90.51-26.85,158.27,28.83,174.79,116.6,4.01,21.31,2.7,42.55,7.99,63.48l14.34-.09c-6.1-107.61,60.03-216.27,181.34-180.05,11.84,3.54,38.35,19.35,46.72,19.35s34.88-15.81,46.72-19.35c25.12-7.5,45.33-9,71.15-3.75,84.74,17.23,111.97,107.06,110.19,183.8,17.61.13,53.21-5.65,54.6,20.16,1.52,28.12-42.06,21.44-59.61,22.27-2.87,14.18-6.76,28.45-12.16,41.88-4.76,11.83-18.43,30.35-21.17,39.47-5.93,19.74-2,70.22-3.86,93.7-3.63,45.86-16.09,134.54-57.1,161.74-44.55,29.55-70.18-20.64-83.89-54.97-17.43-43.64-17.69-93.93-44.86-131.74-25.64,34.46-26.75,81.46-41.54,121.88-14,38.27-41.02,99.19-90.29,62.63-38.45-28.53-50.43-114.26-54.03-159.54-1.84-23.18,1.89-74.58-3.86-93.7-2.74-9.12-16.42-27.64-21.17-39.47-5.4-13.43-9.29-27.7-12.16-41.88-6.55.29-23.74-2.7-27.49,2.31-1.39,1.85-10.45,35.71-13.98,44.03-4.39,10.34-19.31,32.14-21,39.64-4.14,18.38.6,52.27-.58,73.25-2.74,48.83-17.43,191.07-88.24,185.97-25.74-1.85-44.77-41.21-53.49-62.65-14.71-36.16-20.34-100.18-41.29-127.57-1.44-1.88-.93-7.02-5.45-4.94-13.86,6.38-31.58,97.88-38.22,117.35-10.16,29.81-29.65,80.99-67.27,77.76-56.61-4.85-73.63-112.71-77.77-156.92-2.64-28.17,2-81.88-3.89-104.21-2.39-9.07-16.32-27.86-21.13-39.51-5.83-14.11-8.86-29.39-14.39-43.62-15.87-3.63-34.74,2.57-49.51-5.64-16.1-8.96-7.72-37.7,8.48-37.7h38.23c.98-14.07-1.35-29.65,0-43.5ZM469.33,187.14c4.65-78.95-32.38-167.2-127.11-141.61-18.88,5.1-40.27,22.82-58.78,23.18-22.6.43-48.47-23.27-74.11-26.3-90.88-10.74-116.28,69.87-114.41,144.73h100.19c-1.26-30.61-3.7-52.24,32.85-55.48,27.96-2.47,77.44-2.1,105.69,0,36.49,2.7,39.18,22.93,38.12,55.48h97.56ZM943.93,187.14c-2.99-29.74-2.91-58.79-14.55-86.96-21.56-52.14-67.67-69.45-120.65-52.2-25.41,8.28-39.63,26.65-68.54,17.27-39.27-12.74-65.81-38-112.65-16.53-51.14,23.44-58.78,88.59-60.65,138.42h100.19c-2.15-27.99.35-52.42,32.86-55.47,28.44-2.67,79.38-2.03,108.31,0,34.81,2.43,37.61,25.05,35.48,55.48h100.19ZM329.59,173.96h-94.92v13.18h94.92v-13.18ZM804.19,173.96h-97.56v13.18h97.56v-13.18ZM195.12,229.33h-94.92c4.09,12.72,7.81,25.72,13.56,37.85,4.39,9.27,18.46,26.53,20.08,32.65,5.39,20.34,1.05,78.54,3.3,104.81,2.49,29.05,12.8,104.31,34.2,123.99,5.54,5.1,7.97,6.24,12.91-.38,10.88-14.55,22.89-55.51,28.58-74.24,10.3-33.92,18.84-110.87,65.23-114.09,56.62-3.93,64.86,84.92,76.58,124.07,3.23,10.79,20.96,63.09,27.6,67.38,10.99,7.1,22.79-22.28,25.82-29.77,15.57-38.42,19.4-92.36,21.69-133.87,1.04-18.89-3.18-48.71.58-65.34,1.92-8.52,18.61-30.58,23.66-42.26,4.21-9.75,7.24-20.57,10.07-30.8h-92.28c1.06,35.75-2.34,52.64-40.75,55.48-21.06,1.56-102.05,2.68-117.95-3.56-23.76-9.33-17.45-31.07-17.95-51.92ZM329.59,229.33h-94.92v13.18h94.92v-13.18ZM667.08,229.33h-92.28c-2.36,25.64,31.18,59.2,34.11,77.95,5.14,32.92-.84,78.71,3.14,115.51,1.67,15.42,18.56,113.37,40.23,109.62,35.41-42.84,32.37-109.83,56.53-157.21,23.12-45.35,66.06-49.24,91.27-3.34,15.48,28.19,37.16,149.04,56.8,159.55,4.88,2.61,9.22-3.5,11.97-6.72,22.43-26.26,31.32-103.84,33.01-138.37,1.16-23.75-3.92-59.84.49-81.25,1.97-9.59,18.29-30,23.61-42.31,4.39-10.16,8.4-22.46,10.07-33.43h-92.28c2.43,30.41-.99,52.43-35.49,55.48-27.3,2.41-75.47,2.04-103.05,0-36.58-2.71-40.57-22.37-38.12-55.48ZM804.19,229.33h-97.56v13.18h97.56v-13.18Z"/>
</svg>