<?xml version="1.0" encoding="UTF-8"?>
<svg id="Layer_1" data-name="Layer 1" xmlns="http://www.w3.org/2000/svg" viewBox="0 0 779.7 1036.73">
  <defs>
    <style>
      .cls-1 {
        fill: #fff;
      }
    </style>
  </defs>
  <path class="cls-1" d="M545.75,325.8c1.57,1.4,3.59,2.49,5.22,3.87l1.83-.03c14.71-9.08,31.4-15.54,48.48-18.58,79.04-14.08,147.98,34.65,170.51,109.58,21.16,70.35-3.57,173.09-33.84,238.62-9.82,21.26-21.17,37.3-26.13,61.11-7.81,37.51,4.34,68.11,2.07,104.84-3.12,50.27-25.84,89.34-57.99,126.05-19.35,22.09-42.14,48.16-62.73,68.73-14.26,14.24-28.97,22.49-49.1,11.99-30.37-15.85-14.06-56.61-11.9-83.73,4.48-56.11-2.41-128.73-30.86-178.26-32.29-56.22-80.61-61.46-115.89-4.34-29.53,47.81-37.82,121.42-33.68,176.63,1.33,17.79,10.3,55.23,5.33,69.89-8.43,24.84-41.86,32.28-60.31,13.77-56.27-65.8-123.79-113.9-126.74-209.08-.81-26.14,7.83-51.41,6.01-77.72-2.47-35.77-18.65-57.43-32.47-88.24-40.3-89.86-65.87-234.43,18.12-307.36,5.88-5.1,23.78-18.05,30.78-19.45,10.88-2.17,19.26,10.94,11.88,19.69-3.41,4.04-18.04,9.96-24.09,14.74-78.32,61.81-50.32,203.04-15.17,281.63,11.16,24.95,25.21,45.44,30.91,73.06,11.45,55.54-12.15,96.88,7.83,154.7,15.23,44.07,68.22,97.71,101.26,131.78,6.35,6.55,18.79,20.68,27.54,8.36,3.64-5.12,1.43-28.32-1.44-33.26-.93-1.6-7.33-5.31-9.95-7.97-23.79-24.13-67.36-70.07-80.86-99.6-7.03-15.38-13.07-37.05-14.18-53.94-1.59-24.1,5.45-46.76,3.68-70.6-2-27.02-18-49.28-28.09-73.49-23.48-56.32-38.64-137.34-11.6-194.37,4.83-10.19,17.78-37.29,31.89-27.88,13.56,9.04-1.92,22.6-7.2,32.25-28.93,52.76-11.74,133.34,11.17,186.07,9.92,22.82,21.6,39.08,26.15,64.68,5.39,30.35-4.21,54.08-2.09,83.35,3.87,53.42,43.6,87.63,77.71,123.64-.04-7.37.08-14.77.07-22.15-.06-65.17,17.34-179.64,86.76-208.33,62.28-25.74,110.29,42.58,125.31,94.24,16.5-34.03,31.79-70.73,42.09-107.29,18.51-65.7,29.91-159.61-68.36-150.82-7.89.71-15.6,4.22-23.08,5.6-27.95,5.17-51.2,6.71-79.55,2.57-23.36-3.41-67.43-21.37-86.09-3.29-6.7,6.49-8.68,19.88-21.93,14.5-18.34-7.44,4.06-32.38,13.65-38.32,32.84-20.34,85.32,4.76,122.83,5.81,47.99,1.34,91.85-26.48,138.44,1.38,64.54,38.6,36.64,143.07,16.91,200.48-12.47,36.3-28.91,71.06-44.74,105.93l5.94,39.34.63,56.76c1.84.29,2.46-1.47,3.46-2.51,29.85-31.06,62.92-63.98,69.69-108.37,4.37-28.64-4.15-53.75-2.11-82.18,2.26-31.38,19.15-52.08,30.5-79.44,19.16-46.18,34.77-121.13,15.53-168.47-20.18-49.65-75.1-76.54-125.67-54.01-8.91,3.97-19,14-28.45,12.13-3.81-.76-12.74-12.99-16.78-16.67-35.68-32.46-90.58-31.59-125.63,1.58-5.58,5.28-10.68,16.59-19.98,15.94-4.44-.31-13.89-8.44-18.66-11-17.65-9.47-33.07-9.56-52.57-10.78-10.26-6.64-7.23-22.55,5.37-23.34,4.98-.31,19.34.86,24.93,1.42,13.82,1.38,27.72,8.29,39.41,15.27,45.93-48.64,124.4-49.29,170.04-.07,72.48-40.75,155.24-1.07,175.76,77.61,14.39,55.19-3.32,127.76-25.74,179.14-7.67,17.58-18.08,32.38-22.34,51.76-6.28,28.56,3.47,51.59,1.86,79.54-4.18,72.45-58.18,111.98-101.95,162.13-.86,1.89-4.55,26.85-4.26,28.72,1.72,10.83,16.22,14.37,23.15,5.73,47.67-58.3,112.27-101.32,117.72-183.44,2.01-30.32-7.11-58.71-4.81-89.66,3.17-42.79,30.24-77.47,44.78-116.56,21.29-57.26,37.4-145.31,14.34-203.12-26.02-65.24-96.55-100.89-163.54-72.75-8.56,3.6-21.78,14.05-28.19,16.01-2.18.67-4.29.83-6.55.5-5.21-.77-20.48-20.06-26.41-25.01-45.11-37.68-113.41-36.15-157.13,2.94-6.76,6.04-17.3,22.26-25.68,22.24-6.47-.02-13.59-7.46-19.35-10.63-4.12-2.27-9.23-5.06-13.53-6.79-9.22-3.69-23.16-4.68-30.19-8.06-9.35-4.5-9.09-17.7.35-21.87,5.07-2.24,17.86,1.13,23.67,2.63,12.46,3.22,24.04,8.26,34.58,15.72,4.99,1.49,6.05-3.76,8.78-6.24,64.4-58.36,141.55-53.64,204.66,2.44Z"/>
  <path class="cls-1" d="M561.69,2.73l55.97,107.15c5.18,13.55-11.58,23.47-20.28,11.92-2.11-2.8-2.79-9.19-6.96-8.12l-182.46,99.77c5.9,12.52,11.13,20.21-2.07,30.1-5.11,3.83-30.32,17.67-36.25,19.92-11.51,4.36-13.17-3.44-18.57-4.2-3.25-.46-8.89,2.18-13.05,2.46-14.13.97-26.79-.58-39.25-7.44-7.2-3.96-11.68-9.66-18.21-14.18l-47.75,25.15-.49,5.2,56.05,297.78c1.73,10.47-7.51,19.62-17.56,13.95-6.53-3.68-6.86-14.54-8.34-21.52-19.39-91.12-37.87-188.88-52.58-280.85-1.79-11.21-7.82-25.75,4-32.29l54.86-28.87c-3.97-18.31-2.6-36.46,6.73-52.95,2.32-4.1,13.61-16.13,13.92-17.24.74-2.67-.87-5.44-.54-8.71.46-4.49,2.34-7.22,5.6-10.05,5.11-4.43,28.19-16.35,35.32-19.65,7.84-3.63,12.04-6.18,19.59.39,4.44,3.86,6.09,11.06,8.93,13.78,1.09,1.05,1.72,1.65,3.31,1.01l184.84-100.92c-10.37-14.13-2.16-31.04,15.25-21.62ZM372.13,145.86l24.41,46.38,184.5-101.83c-8.2-11.71-13.63-30.91-21.52-41.9-.7-.97-1.07-2.13-2.61-1.8l-184.78,99.14ZM337.37,133.82l-21.46,11.34,50.94,91.34,18.36-8.88,1.03-2.16-48.87-91.64ZM321.25,237.79c5.26.75,11.88-.54,17.33,0l-36.47-66.96c-6.24,1-12.63,23.57-12.62,29.31.04,16.57,15.18,35.3,31.76,37.65Z"/>
  <path class="cls-1" d="M33.1,168.02c19.71,19.91,39.39,39.88,58.64,60.26,6.33,10.08-2.87,21.14-13.74,18.56-22.45-21-44.26-43.61-65.06-66.38-1.21-1.32-3.41-1.98-4.85-3.57-5.55-6.13-12.49-15.47-4.41-22.77,11.95-10.79,22.11,6.53,29.42,13.9Z"/>
  <path class="cls-1" d="M658.51,365.92c15.7-3.58,40.07,16.21,49.14,28.03,9.6,12.52,19.97,41.64,18.15,57.19-1.78,15.28-20.98,14.08-23.65.89-4.26-21.02-3.67-37.65-22.41-52.88-8.96-7.28-14.44-6.39-22.94-10.52-9.97-4.85-8.01-20.5,1.71-22.71Z"/>
  <path class="cls-1" d="M13.17,283.46c3.57-.81,15.49.59,20.06.95,6.51.51,36.52,3.17,39.98,5.44,9.06,5.93,4.48,21.18-6.51,22.1l-54.44-5.37c-11.22-3.99-9.79-20.68.92-23.12Z"/>
  <path class="cls-1" d="M115.98,162.7c3.72-.76,9.66,1.11,12.11,4.14,3.82,4.73,14.46,35.21,16.91,42.84,1.22,3.8,3.77,9.2,3.52,13.02-.79,11.56-16.63,14.34-22.49,4.75-3.73-6.12-15.08-37.77-17.44-45.89-2.11-7.27-1.92-16.96,7.39-18.87Z"/>
  <path class="cls-1" d="M283.28,602.51c13.46-1.77,17.29,20.78,15.78,30.18-1.2,7.47-10.36,10.82-16.98,7.55-8.63-4.26-14.9-35.62,1.2-37.73Z"/>
  <path class="cls-1" d="M292.82,661.09c9.49-2.16,13.18,3.6,15.32,11.67,2.82,10.68,4.25,28.66-11.9,26.28-11.63-1.72-18.56-34.51-3.42-37.95Z"/>
  <path class="cls-1" d="M300.71,753.68c-2.82-2.63-6.74-21.24-6.14-25.01,1.44-9.05,13.15-13.79,20.04-7.41,3.66,3.39,7.47,21.58,6.28,26.36-2.2,8.85-13.67,12.13-20.19,6.06Z"/>
</svg>