<svg width="35" height="35" viewBox="0 0 35 35" fill="none" xmlns="http://www.w3.org/2000/svg">
<path d="M24.9165 25.5672C24.6418 25.5672 24.3881 25.3946 24.2874 25.1391C24.184 24.8764 24.257 24.5676 24.47 24.3811C24.6857 24.1923 25.0067 24.161 25.2548 24.3041C25.5031 24.4474 25.6374 24.7412 25.5807 25.0228C25.5178 25.3353 25.2353 25.5672 24.9165 25.5672Z" fill="white"/>
<path d="M13.7085 34.6669C12.5107 34.6669 11.3612 34.1412 10.3304 33.1104L8.48962 31.2657C7.66068 30.4335 7.21167 29.8464 7.21167 29.1271C7.21167 28.4078 7.66061 27.8207 8.48915 26.9889L12.392 23.0781C12.9846 22.4832 13.4967 22.0276 14.2311 22.0272H14.2323C15.1817 22.0272 16.1006 22.7446 18.3673 24.9927L25.026 18.3071C23.3926 16.6554 22.5389 15.6871 22.2201 14.9072C21.7263 13.6987 22.4921 12.9299 23.1075 12.3121L27.0103 8.40139C27.839 7.56934 28.4241 7.11816 29.1396 7.11816C29.8551 7.11823 30.4402 7.56934 31.2694 8.40194L33.1092 10.2456C34.5139 11.6503 34.9919 13.2664 34.491 14.9187C34.093 16.2315 33.1895 17.2587 32.6496 17.8724C32.5357 18.0019 32.4373 18.1137 32.3791 18.1891C32.3642 18.2083 32.3483 18.2267 32.3315 18.2441L27.5778 23.1865C27.3185 23.456 26.8899 23.4645 26.6203 23.2052C26.3508 22.946 26.3424 22.5173 26.6017 22.2478L31.3318 17.3298C31.4129 17.2277 31.5155 17.1111 31.6327 16.9779C33.1624 15.2388 34.2839 13.3355 32.151 11.2027L30.3102 9.35804C30.0459 9.09275 29.4281 8.47243 29.1394 8.47243C28.8507 8.47243 28.2329 9.09268 27.9691 9.35757L24.0663 13.2683C23.3536 13.9838 23.3566 14.1085 23.4736 14.3949C23.7314 15.0258 24.7221 16.0887 26.4601 17.8292C26.7239 18.0933 26.7241 18.521 26.4607 18.7855L18.8488 26.4283C18.7219 26.5558 18.5494 26.6275 18.3695 26.6276C18.3694 26.6276 18.3692 26.6276 18.3691 26.6276C18.1894 26.6276 18.017 26.5561 17.89 26.4289C16.2251 24.7616 14.8007 23.3814 14.2322 23.3814C14.2322 23.3814 14.2322 23.3814 14.232 23.3814C14.038 23.3815 13.7727 23.611 13.3511 24.0342L9.44823 27.945C9.03769 28.3571 8.566 28.8644 8.566 29.127C8.566 29.3896 9.03776 29.8969 9.44871 30.3096L11.2885 32.1533C13.4 34.2647 15.3046 33.1433 17.0482 31.617C17.1734 31.5073 17.2832 31.4112 17.3795 31.3343L22.2889 26.5606C22.557 26.2997 22.9857 26.3059 23.2465 26.574C23.5072 26.8421 23.5011 27.2708 23.2331 27.5316L18.2987 32.3294C18.2811 32.3466 18.2624 32.3628 18.243 32.3779C18.17 32.4349 18.0635 32.528 17.9403 32.636C17.3279 33.172 16.303 34.0691 14.9916 34.4696C14.5599 34.6014 14.1311 34.6668 13.7085 34.6669Z" fill="white"/>
<path d="M16.0968 5.46432C15.3659 4.64594 14.3598 4.19531 13.2638 4.19531C12.9539 4.19531 12.4355 4.29593 11.1672 5.08066C10.8231 5.29369 10.3955 5.29362 10.0513 5.08066C8.78308 4.29593 8.26467 4.19531 7.95475 4.19531C6.85874 4.19531 5.85266 4.64594 5.12176 5.46432C4.43928 6.22847 4.06348 7.23096 4.06348 8.28701C4.06348 9.47125 4.72957 10.3697 5.53434 11.3384L5.64011 11.4653C6.18987 12.1242 6.37507 12.3461 6.37507 13.0523V13.5525C6.37507 15.2576 7.59404 16.6984 9.27353 16.9785C9.47003 17.0111 9.67073 16.9559 9.82254 16.8273C9.97442 16.6987 10.062 16.5097 10.062 16.3106V12.9066C10.062 12.6068 10.3059 12.3612 10.6055 12.3592H10.6094C10.7548 12.3592 10.8916 12.4155 10.9949 12.5182C11.0992 12.6217 11.1566 12.7597 11.1566 12.9066V16.3106C11.1566 16.5096 11.2442 16.6986 11.3961 16.8273C11.5193 16.9317 11.6747 16.9877 11.8338 16.9877C11.8708 16.9877 11.908 16.9847 11.9451 16.9785C13.6246 16.6984 14.8436 15.2576 14.8436 13.5525V13.0523C14.8436 12.3461 15.0289 12.1241 15.5787 11.4652L15.6843 11.3385C16.489 10.3697 17.1551 9.47138 17.1551 8.28708C17.1551 7.23089 16.7793 6.22847 16.0968 5.46432ZM14.6424 10.4731L14.5388 10.5975C13.9295 11.3277 13.4893 11.8553 13.4893 13.0523V13.5525C13.4893 14.2997 13.1061 14.9636 12.5108 15.3417V12.9065C12.5108 12.3961 12.3113 11.9169 11.9491 11.5571C11.5902 11.2006 11.115 11.0049 10.6096 11.0049H10.596C9.55481 11.0121 8.70771 11.8652 8.70771 12.9065V15.3417C8.11245 14.9636 7.72926 14.2997 7.72926 13.5525V13.0523C7.72926 11.8554 7.28913 11.3279 6.67991 10.5977L6.57611 10.4731C5.91976 9.68298 5.41774 9.02028 5.41774 8.28701C5.41774 7.56417 5.67132 6.8821 6.13184 6.36647C6.60231 5.83973 7.24972 5.54964 7.95014 5.54951C7.96233 5.55032 8.24341 5.57456 9.15415 6.11999L9.27258 6.2563C9.96528 7.05355 10.9386 7.48001 11.9377 7.48001C12.4309 7.48001 12.9306 7.376 13.4057 7.16135C13.7465 7.00737 13.898 6.6063 13.744 6.2655C13.5901 5.9247 13.189 5.77323 12.8482 5.92721C12.5938 6.04219 12.328 6.1057 12.0633 6.12067C12.9749 5.57463 13.2559 5.55039 13.2638 5.54971C13.9688 5.54971 14.6162 5.83979 15.0867 6.36653C15.5471 6.8821 15.8007 7.56424 15.8007 8.28708C15.8008 9.02034 15.2988 9.68298 14.6424 10.4731Z" fill="white"/>
<path d="M10.6094 21.1834C4.76913 21.1834 0.0177002 16.4319 0.0177002 10.5917C0.0177002 4.75143 4.76913 0 10.6094 0C16.4496 0 21.2011 4.75143 21.2011 10.5917C21.2011 13.2146 20.2466 15.7067 18.5055 17.6513L19.0917 19.9555C19.1492 20.1811 19.0866 20.4203 18.9262 20.589C18.7658 20.7576 18.5301 20.8323 18.3017 20.7862L15.1684 20.1545C13.7407 20.8373 12.2081 21.1834 10.6094 21.1834ZM10.6094 1.35426C5.5158 1.35426 1.37196 5.4981 1.37196 10.5917C1.37196 15.6853 5.51587 19.8291 10.6094 19.8291C12.0739 19.8291 13.4741 19.4967 14.7709 18.841C14.9065 18.7724 15.0613 18.7515 15.2102 18.7815L17.5138 19.2458L17.1022 17.628C17.0445 17.4011 17.108 17.1606 17.2702 16.9918C18.9317 15.2631 19.8468 12.9901 19.8468 10.5915C19.8468 5.4981 15.703 1.35426 10.6094 1.35426Z" fill="white"/>
</svg>
