<?xml version="1.0" encoding="UTF-8"?>
<svg id="Layer_1" data-name="Layer 1" xmlns="http://www.w3.org/2000/svg" viewBox="0 0 770.61 965.34">
  <defs>
    <style>
      .cls-1 {
        fill: #fff;
      }
    </style>
  </defs>
  <path class="cls-1" d="M725.7,33.98c-49.02-47.33-136.61-37.84-194.8-13.57-77.94,32.51-111.08,67.23-201.89,37.9C255.41,34.54,210.87-4.85,126.28.49,65.88,4.31,22.52,42.4,8.27,100.55c-3.22,10.5-5.45,28.83-6.69,41.36-.04.05-.07.08-.08.15-.27.94-.97,11.07-1.08,13.26-1.97,36.38,3.21,77.86,9.35,113.77,8.41,49.19,21.9,97.28,35.45,145.17l7.21,24.22h0c5.72,20.03,14.74,43.07,21.34,61.84,17.16,48.88,36.21,97.22,56.08,145.04-15.02,95.77-7.34,216.16,57.93,292.27,37.89,44.17,104.97,32.96,128.28-19.37l56.26-245.68c4.11-12.79,20.93-14.16,25.74-1.15,18.6,73.7,31.84,148.86,50.29,222.58,7.21,28.78,16.1,51.56,45.32,64.27,39.82,17.32,74.22,1.19,98.2-31.48,57.87-78.86,63.48-188.97,49.42-282.67,28.61-66.29,53.09-134.33,75.66-202.95h0l.02-.08c1.55-4.72,3.1-9.46,4.64-14.18l.04-.35,9.02-28.03c10.78-41.83,22.48-83.44,29.89-126.11,12.68-73.02,23.57-182.04-34.86-238.46h-.01ZM733,130.8c0,56.49-1.4,100.06-12.67,156.2-24.39,121.52-71.39,239.32-116.87,354,12.79,79.82,12.41,175.87-29.99,247.3-15.09,25.41-39.63,55.22-71.25,32.36-12.78-9.23-14.28-20.47-17.88-34.68-19.05-75.15-32.16-151.97-51.34-227.12-16.42-44.45-78.4-44.15-94.85-.29l-53.96,237.91c-13.81,40.36-50.54,41.85-75.06,8.61-53.3-72.21-56.16-177.68-41.16-263.01-38.19-94.92-75.89-191.3-102.09-290.44-17.87-67.6-32.38-139.32-27.32-209.57.92-20,7.82-41.46,7.82-41.46,13.54-39.32,41.57-60.41,83.26-63.21,98.57-6.61,171.43,74.8,270.68,69.38,73.56-4.02,131.98-60.22,204.62-68.25,48.33-5.34,93.3,2.74,114.81,50.68,1.49,3.33,5.69,17.26,6.78,18.37.94.96,3.36.92,4.74,2.53,2.77,3.21,1.74,15.82,1.74,20.71h-.01Z"/>
  <path class="cls-1" d="M292.34,492.53v109.59l93.32-12.34,93.43,12.34v-109.59l-94.52,11.28-92.24-11.28h.01ZM389.12,540.66c16.98-.5,35.85-5.9,53.07-6.75v25.73l-57.59-6.81-55.36,6.81v-22.93c0-.28-1.32-.85-.63-1.68l2.28-1.14c18.63,1.57,39.67,7.33,58.23,6.78h0Z"/>
  <path class="cls-1" d="M401.63,421.7c-1.15,0-2.34.1-3.56.3-6.69,1.16-14.01,1.19-21,.64-7.97-1.57-16.17-2.14-24.44-3.92-3.42-.81-5.7-1.47-6.36-1.66-.07-.02-.15-.04-.22-.06-30.89-9.65-60.91-36.42-60.44-70.98l-36.91,2.23c-.19,28.84,15.25,57.41,36.67,75.99,52.47,45.49,137.92,47.5,193.09,5.61,25.92-19.68,42.6-47.89,44.23-81.02l-36.92-2.82c-1.55,44.12-43.65,71.55-84.18,75.66l.02.02Z"/>
  <path class="cls-1" d="M308.86,293.18c.58,2.42-.52,7.47,1.31,8.76l35.86-.63c1.26-33.96-24.62-66.88-57.02-75.51-52.13-13.88-99.54,22.52-101.79,75.51l36.86,1.05c1.72-50.57,72.7-59.11,84.78-9.18h0Z"/>
  <path class="cls-1" d="M457.49,237.76c-20.29,14.84-31.7,36.42-33.09,61.7l2.69,1.84,34.11,1.13c2.01-56.6,84.14-56.66,84.98,0l35.08-1.28,1.67-1.67c.22-18.13-7.8-38.35-20.36-51.45-27.94-29.15-72.79-33.86-105.08-10.25h.01Z"/>
</svg>