<svg width="57" height="56" viewBox="0 0 57 56" fill="none" xmlns="http://www.w3.org/2000/svg">
<path d="M53.4261 32.3949L52.8907 31.5919C52.0608 30.3468 50.7956 29.4996 49.3285 29.2062C47.8612 28.9128 46.3677 29.2082 45.1227 30.0382L34.2362 37.2958C34.3675 36.8998 34.4385 36.4768 34.4385 36.0373C34.4385 33.8274 32.6406 32.0294 30.4306 32.0294H23.5319L22.6275 31.3511C21.1551 30.2469 19.3306 29.6387 17.4903 29.6387C16.46 29.6387 15.4485 29.8222 14.4839 30.1839L10.5315 31.666V30.7872C10.5315 30.1539 10.0164 29.6387 9.38309 29.6387H3.33618C2.88315 29.6387 2.51587 30.0059 2.51587 30.4591V47.9907C2.51587 48.4438 2.88315 48.811 3.33618 48.811H9.3832C10.0165 48.811 10.5316 48.2958 10.5316 47.6625V46.4204H12.4721C12.6824 46.4204 12.8919 46.4485 13.0949 46.5038L21.0371 48.6699C21.3805 48.7635 21.7354 48.8111 22.0917 48.8111H31.2106C32.4274 48.8111 33.6312 48.4056 34.6002 47.6693L53.2401 33.503C53.5851 33.2408 53.6666 32.7553 53.4262 32.3948L53.4261 32.3949ZM8.8909 47.1705H4.15638V44.8267H5.72668C6.17971 44.8267 6.54699 44.4595 6.54699 44.0064C6.54699 43.5532 6.17971 43.186 5.72668 43.186H4.15638V31.2795H8.8909V47.1705ZM33.6072 46.3631C32.9221 46.8838 32.0709 47.1705 31.2104 47.1705H22.0915C21.8809 47.1705 21.6714 47.1424 21.4686 47.0871L13.5265 44.9211C13.1829 44.8273 12.8281 44.7797 12.4719 44.7797H10.5315V33.4182L15.06 31.7202C15.8397 31.4277 16.6574 31.2795 17.4903 31.2795C18.978 31.2795 20.4529 31.7711 21.6431 32.6637L22.7663 33.506C22.9083 33.6126 23.081 33.6701 23.2585 33.6701H30.4306C31.7358 33.6701 32.7979 34.732 32.7979 36.0374C32.7979 37.3428 31.7359 38.4047 30.4306 38.4047H23.2585C22.8055 38.4047 22.4382 38.7719 22.4382 39.225C22.4382 39.6782 22.8055 40.0453 23.2585 40.0453H32.0973C32.7332 40.0453 33.3492 39.8589 33.8785 39.506L46.0327 31.4033C46.913 30.8164 47.9693 30.6073 49.0067 30.815C50.0442 31.0223 50.9388 31.6215 51.5257 32.5019L51.6333 32.6634L33.6074 46.3632L33.6072 46.3631Z" fill="white"/>
<path d="M35.2118 12.9041H32.0242C31.5711 12.9041 31.2038 13.2712 31.2038 13.7244V15.2948H29.6335C29.1805 15.2948 28.8132 15.6619 28.8132 16.1151V19.3027C28.8132 19.7558 29.1805 20.123 29.6335 20.123H31.2038V21.6933C31.2038 22.1465 31.5711 22.5136 32.0242 22.5136H35.2118C35.6648 22.5136 36.0321 22.1465 36.0321 21.6933V20.123H37.6024C38.0554 20.123 38.4227 19.7558 38.4227 19.3027V16.1151C38.4227 15.6619 38.0554 15.2948 37.6024 15.2948H36.0321V13.7244C36.0321 13.2712 35.6648 12.9041 35.2118 12.9041ZM36.7821 16.9354V18.4824H35.2118C34.7587 18.4824 34.3915 18.8496 34.3915 19.3027V20.873H32.8445V19.3027C32.8445 18.8496 32.4772 18.4824 32.0242 18.4824H30.4539V16.9354H32.0242C32.4772 16.9354 32.8445 16.5682 32.8445 16.1151V14.5447H34.3915V16.1151C34.3915 16.5682 34.7587 16.9354 35.2118 16.9354H36.7821Z" fill="white"/>
<path d="M26.5261 22.1428C26.1714 21.8609 25.6555 21.9199 25.3736 22.2744C25.0916 22.629 25.1505 23.1452 25.5052 23.427L26.1268 23.9212C26.2778 24.0412 26.4578 24.0994 26.6367 24.0994C26.8782 24.0994 27.1174 23.9932 27.2794 23.7895C27.5614 23.4349 27.5024 22.9188 27.1477 22.6369L26.5261 22.1428Z" fill="white"/>
<path d="M24.176 21.2669C24.5303 20.9845 24.5886 20.4684 24.3062 20.1141C23.1317 18.6405 22.4849 16.793 22.4849 14.9117C22.4849 13.3197 23.1035 11.8284 24.2307 10.7085C25.3469 9.58515 26.8382 8.96631 28.4302 8.96631C29.2209 8.96631 29.9835 9.11681 30.6935 9.4119C31.4272 9.72122 32.0793 10.1581 32.6315 10.7104L33.0379 11.1168C33.3583 11.4371 33.8777 11.4371 34.198 11.1168L34.6044 10.7103C35.729 9.5857 37.221 8.96631 38.8057 8.96631C40.3905 8.96631 41.889 9.58504 43.009 10.7123C44.1324 11.8283 44.751 13.3197 44.751 14.9117C44.751 17.4556 43.6117 19.8244 41.6244 21.4112L33.6184 27.8147L29.6444 24.6312C29.2907 24.3479 28.7745 24.4051 28.4913 24.7585C28.208 25.1121 28.2651 25.6284 28.6187 25.9117L33.1053 29.5056C33.2552 29.6257 33.4366 29.6856 33.6182 29.6856C33.7997 29.6856 33.9807 29.6257 34.1306 29.5059L42.6489 22.6928C45.0276 20.7934 46.392 17.9572 46.392 14.9116C46.392 12.8793 45.6013 10.9747 44.1694 9.55212C42.7429 8.11636 40.8381 7.32568 38.806 7.32568C36.8637 7.32568 35.0309 8.05401 33.6182 9.38204C32.9538 8.75828 32.1851 8.26018 31.3273 7.8987C30.413 7.51851 29.4383 7.32579 28.4304 7.32579C26.3982 7.32579 24.4935 8.11647 23.0709 9.54851C21.6352 10.9748 20.8445 12.8794 20.8445 14.9117C20.8445 17.163 21.6183 19.3738 23.0235 21.1368C23.306 21.4911 23.8219 21.5492 24.1763 21.2669H24.176Z" fill="white"/>
</svg>
