<svg width="46" height="39" viewBox="0 0 46 39" fill="none" xmlns="http://www.w3.org/2000/svg">
<path d="M44.8755 7.73484C44.2335 7.18992 41.8074 5.27761 37.5464 3.54509C32.9926 1.69353 28.0923 0.754761 22.9816 0.754761C17.8711 0.754761 12.9708 1.69353 8.41697 3.54509C4.15593 5.27761 1.72986 7.18992 1.0908 7.7323C0.269214 8.42195 -0.0427974 9.85808 0.393335 10.9293L1.82009 14.496C2.63562 16.5445 4.58816 17.8681 6.79451 17.8681H12.4829L11.9748 20.0664C11.452 21.6135 10.3587 22.5 8.97068 22.5C7.7242 22.5 6.47937 23.0721 5.72195 23.9931C5.11482 24.7314 4.87595 25.6229 5.0491 26.5029L6.44275 33.6168H5.76785C5.36326 33.6168 5.03543 33.9447 5.03543 34.3492C5.03543 34.7537 5.36326 35.0816 5.76785 35.0816H7.33259H8.16502V37.4789C8.16502 37.8834 8.49285 38.2113 8.89744 38.2113C9.30203 38.2113 9.62986 37.8834 9.62986 37.4789V35.0816H27.9616C28.3662 35.0816 28.694 34.7537 28.694 34.3492C28.694 33.9447 28.3662 33.6168 27.9616 33.6168H7.93582L6.48679 26.2207C6.37507 25.6531 6.62459 25.202 6.85369 24.9235C7.33259 24.3411 8.16365 23.9648 8.97097 23.9648C11.0103 23.9648 12.657 22.6679 13.3761 20.4956C13.3831 20.4741 13.3892 20.4524 13.3944 20.4303L14.4357 15.9251C14.9984 14.2779 16.5419 13.1735 18.2871 13.1735H27.6763C29.4217 13.1735 30.9652 14.2779 31.5277 15.9253L32.5713 20.4306C32.5763 20.4523 32.5823 20.4737 32.5892 20.4948C33.3059 22.6677 34.9519 23.9648 36.9926 23.9648C38.3549 23.9648 39.4269 24.9832 39.462 26.2956L38.0275 33.6168H34.497C34.0924 33.6168 33.7645 33.9447 33.7645 34.3492C33.7645 34.7537 34.0924 35.0816 34.497 35.0816H36.3331V37.4789C36.3331 37.8834 36.6609 38.2113 37.0655 38.2113C37.4701 38.2113 37.7979 37.8834 37.7979 37.4789V35.0816H38.6281C38.6291 35.0816 38.6302 35.0817 38.631 35.0817C38.6321 35.0817 38.6332 35.0816 38.6343 35.0816H40.1951C40.5997 35.0816 40.9275 34.7537 40.9275 34.3492C40.9275 33.9447 40.5997 33.6168 40.1951 33.6168H39.5201L40.9139 26.5029C40.9229 26.4565 40.9275 26.4094 40.9275 26.3621C40.9275 24.1964 39.199 22.5 36.9924 22.5C35.6037 22.5 34.5111 21.6136 33.9905 20.0667L33.4812 17.8681H39.1685C41.375 17.8681 43.3275 16.5445 44.1427 14.497L45.5682 10.9334C46.0061 9.85818 45.6941 8.42214 44.8755 7.73484ZM44.2098 10.3852L42.7822 13.9543C42.1899 15.4421 40.7715 16.4034 39.1686 16.4034H33.1421L32.9468 15.56C32.9416 15.5378 32.9354 15.5158 32.9282 15.4941C32.4104 13.9375 31.2511 12.732 29.8011 12.1306C29.9087 12.0031 29.9738 11.8386 29.9738 11.6587V9.3115C29.9738 8.90701 29.646 8.57908 29.2414 8.57908C28.8368 8.57908 28.509 8.90701 28.509 9.3115V11.6588C28.509 11.6978 28.513 11.7358 28.5188 11.7732C28.2432 11.7311 27.9619 11.7088 27.6765 11.7088H18.2873C18.0019 11.7088 17.7206 11.7311 17.445 11.7732C17.4509 11.7358 17.4549 11.6978 17.4549 11.6588V9.3115C17.4549 8.90701 17.127 8.57908 16.7224 8.57908C16.3179 8.57908 15.99 8.90701 15.99 9.3115V11.6588C15.99 11.8386 16.0552 12.0032 16.1628 12.1306C14.7127 12.732 13.5533 13.9375 13.0355 15.4941C13.0283 15.5159 13.022 15.538 13.0169 15.5603L12.8221 16.4033H6.7948C5.19197 16.4033 3.77351 15.442 3.18084 13.953L1.75193 10.3809C1.55418 9.89539 1.69324 9.13914 2.03572 8.85154C3.27234 7.80212 5.74314 6.21345 8.96883 4.90193C13.3465 3.12195 18.0611 2.21951 22.9816 2.21951C27.9022 2.21951 32.6168 3.12205 36.9945 4.90193C40.2202 6.21345 42.6909 7.80212 43.9306 8.85408C44.2701 9.13923 44.4092 9.89558 44.2098 10.3852Z" fill="white"/>
</svg>
