<?xml version="1.0" encoding="UTF-8"?>
<svg id="Layer_1" data-name="Layer 1" xmlns="http://www.w3.org/2000/svg" xmlns:xlink="http://www.w3.org/1999/xlink" viewBox="0 0 1052.95 1052.95">
  <defs>
    <style>
      .cls-1 {
        fill: none;
      }

      .cls-2 {
        fill: #fff;
      }

      .cls-3 {
        clip-path: url(#clippath);
      }
    </style>
    <clipPath id="clippath">
      <rect class="cls-1" width="1052.95" height="1052.95"/>
    </clipPath>
  </defs>
  <g class="cls-3">
    <g>
      <path class="cls-2" d="M864.36,732.23c-8.61,0-16.44-5.55-19.34-13.64-2.9-8.06-.34-17.39,6.3-22.82,6.75-5.52,16.49-6.14,23.9-1.56,7.4,4.58,11.14,13.66,9.17,22.13-2.15,9.18-10.59,15.88-20.02,15.88Z"/>
      <path class="cls-2" d="M763.36,291.27c-30.67-34.33-72.87-53.24-118.85-53.24-11.54,0-33.24,3.93-88.2,37.93-18.4,11.38-41.27,11.38-59.67,0-54.95-34-76.65-37.93-88.2-37.93-45.98,0-88.19,18.91-118.85,53.24-28.78,32.22-44.63,74.54-44.63,119.14,0,54.09,35.29,96.25,69.42,137.03,4.62,5.52,8.98,10.59,13.07,15.35,27.2,31.63,38.46,44.72,38.46,86.68v22.24c0,71.12,50.85,131.23,120.91,142.91,5.97.99,12.06-.69,16.67-4.59,4.61-3.91,7.27-9.65,7.27-15.69v-179.44c0-8.84,6.84-16.22,15.25-16.45,4.31-.1,8.34,1.46,11.4,4.44,3.07,2.98,4.76,6.98,4.76,11.26v180.2c0,6.04,2.66,11.78,7.27,15.69,3.74,3.17,8.46,4.87,13.29,4.87,1.12,0,2.25-.09,3.38-.28,70.06-11.68,120.91-71.78,120.91-142.91v-22.24c0-41.96,11.26-55.05,38.46-86.68,4.09-4.76,8.45-9.83,13.07-15.35,34.13-40.78,69.42-82.94,69.42-137.03,0-44.61-15.85-86.92-44.63-119.14ZM707.02,521.05c-4.5,5.37-8.74,10.3-12.72,14.93-29.15,33.9-48.41,56.29-48.41,113.5v22.24c0,42.4-25.22,79.33-62.59,95.34v-152.91c0-15.47-6.11-29.94-17.2-40.74-10.71-10.41-24.71-16.1-39.6-16.1-.54,0-1.07,0-1.61.02-30.46.84-55.25,26.66-55.25,57.57v152.16c-37.37-16.01-62.59-52.94-62.59-95.34v-22.24c0-57.21-19.26-79.6-48.41-113.5-3.98-4.63-8.22-9.56-12.71-14.93-36.14-43.18-59.84-74.21-59.84-110.63,0-34.49,12.14-67.07,34.18-91.74,22.75-25.47,54.07-39.5,88.17-39.5,1.48,0,15.2.81,59.54,27.5l6.26,7.2c21.04,24.21,48.73,40.64,80.06,47.5,10.59,2.32,21.25,3.47,31.86,3.47,20.79,0,41.37-4.43,60.73-13.17,10.35-4.68,14.95-16.86,10.27-27.21-4.68-10.35-16.86-14.95-27.21-10.27-23.2,10.48-48.33,12.21-71.47,6.06,6.71-2.34,13.23-5.44,19.46-9.29,49.92-30.89,65-31.78,66.56-31.78,34.11,0,65.42,14.03,88.17,39.5,22.04,24.67,34.17,57.26,34.17,91.74,0,36.42-23.69,67.45-59.83,110.63Z"/>
      <path class="cls-2" d="M526.47,984.65c-3.25,0-6.5-.77-9.47-2.31-5.25-2.72-130-67.88-256.79-175.45-74.91-63.55-134.71-128.68-177.74-193.58C27.75,530.76,0,448.22,0,367.97,0,202.73,134.77,68.3,300.43,68.3c86.61,0,169.29,37.84,226.04,102.37,56.75-64.53,139.43-102.37,226.04-102.37,165.66,0,300.43,134.43,300.43,299.67,0,93.28-37.34,189.24-110.99,285.21-6.92,9.01-19.82,10.71-28.83,3.8-9.01-6.92-10.71-19.83-3.8-28.84,68-88.62,102.49-176.16,102.49-260.17,0-142.56-116.32-258.54-259.3-258.54-82.42,0-160.72,39.7-209.46,106.19-3.87,5.29-10.03,8.41-16.59,8.41s-12.71-3.12-16.59-8.41c-48.74-66.5-127.04-106.19-209.46-106.19-142.98,0-259.3,115.98-259.3,258.54,0,164.57,133.61,312.47,245.69,407.56,103.65,87.94,208.24,147.94,239.65,165.19,33.14-18.22,147.75-84.06,256.64-179.86,8.53-7.5,21.52-6.67,29.02,1.85,7.5,8.53,6.67,21.52-1.86,29.02-132.33,116.43-268.6,187.63-274.34,190.6-2.97,1.54-6.22,2.31-9.47,2.31Z"/>
    </g>
  </g>
</svg>