<svg width="57" height="56" viewBox="0 0 57 56" fill="none" xmlns="http://www.w3.org/2000/svg">
<path d="M28.7875 37.1543H27.8365C27.3835 37.1543 27.0162 37.5215 27.0162 37.9746C27.0162 38.4277 27.3835 38.7949 27.8365 38.7949H28.7875C29.2405 38.7949 29.6078 38.4277 29.6078 37.9746C29.6078 37.5215 29.2405 37.1543 28.7875 37.1543Z" fill="white"/>
<path d="M50.593 45.7425L42.7632 33.5515C42.5183 33.1702 42.0108 33.0597 41.6296 33.3045C41.2485 33.5493 41.1379 34.0568 41.3828 34.438L48.1424 44.9628L41.7251 43.5649C41.5127 43.5183 41.2902 43.5585 41.1073 43.6762C40.9243 43.7938 40.7953 43.9793 40.7491 44.1918L39.3359 50.6794L32.2539 40.2698C31.9991 39.8951 31.4888 39.7982 31.1142 40.053C30.7396 40.3079 30.6426 40.8181 30.8974 41.1927L39.0531 53.1802C39.2076 53.4074 39.4631 53.5391 39.7312 53.5391C39.7831 53.5391 39.8353 53.5342 39.8874 53.5241C40.2092 53.4618 40.463 53.2137 40.5328 52.8933L42.1776 45.3425L49.7284 46.9873C50.0524 47.0584 50.3874 46.9263 50.5767 46.6538C50.7658 46.3814 50.7723 46.0216 50.593 45.7425Z" fill="white"/>
<path d="M25.6017 40.1422C25.2426 39.8659 24.7276 39.933 24.4513 40.2922L16.8598 50.1589L16.011 43.6462C15.9525 43.1969 15.5408 42.8816 15.0916 42.9386L8.5789 43.7874L15.2343 35.1375C15.5105 34.7786 15.4434 34.2635 15.0843 33.9871C14.7251 33.7109 14.2101 33.7779 13.9339 34.1371L6.07093 44.3565C5.86858 44.6195 5.84463 44.9784 6.01012 45.2659C6.1756 45.5535 6.49782 45.7127 6.82704 45.6701L14.4901 44.6714L15.4888 52.3346C15.5316 52.6636 15.7684 52.9343 16.0888 53.0206C16.1595 53.0396 16.2312 53.0488 16.3022 53.0488C16.5529 53.0488 16.7946 52.9336 16.9523 52.7287L25.7515 41.2923C26.0279 40.9335 25.9608 40.4185 25.6017 40.1422Z" fill="white"/>
<path d="M10.6088 26.3692C10.9962 27.6396 12.1242 28.441 13.1195 29.148C13.7545 29.599 14.3543 30.0251 14.6848 30.498C15.0395 31.0056 15.2438 31.7394 15.46 32.5162C15.7972 33.7269 16.1458 34.9791 17.163 35.7455C18.2926 36.5965 21.3859 36.6024 22.7592 36.559C23.0669 36.8636 23.4005 37.144 23.7511 37.3928C24.1205 37.6548 24.6326 37.5679 24.8948 37.1984C25.157 36.8289 25.07 36.3168 24.7004 36.0547C24.4139 35.8514 24.1415 35.6212 23.891 35.3706L23.6658 35.1454C23.5027 34.9823 23.279 34.8952 23.0482 34.9061C21.1027 34.9951 18.6707 34.8273 18.1503 34.4351C17.5772 34.0033 17.3165 33.0672 17.0406 32.0761C16.7968 31.2007 16.5448 30.2956 16.0295 29.5582C15.5362 28.8523 14.7906 28.3226 14.0696 27.8105C13.2121 27.2014 12.4023 26.6261 12.1781 25.8907C11.9539 25.1552 12.3049 24.226 12.6765 23.2421C12.989 22.4147 13.3122 21.5591 13.3277 20.698C13.3438 19.7987 13.048 18.9069 12.7618 18.0444C12.4379 17.0679 12.1317 16.1457 12.3663 15.4676C12.6052 14.7772 13.421 14.2381 14.2848 13.6671C15.0387 13.1689 15.8183 12.6537 16.3534 11.9434C16.8811 11.2429 17.1584 10.3594 17.4266 9.50498C17.7388 8.50988 18.0337 7.57013 18.6448 7.14302C19.2156 6.74402 20.1748 6.78515 21.1908 6.82835C22.1108 6.86762 23.0621 6.90809 23.942 6.6399C24.822 6.3716 25.5888 5.80712 26.3303 5.26112C27.149 4.65846 27.9232 4.08577 28.6187 4.10152C29.364 4.11487 30.1331 4.73021 30.9475 5.38176C31.6468 5.94121 32.3699 6.5197 33.1988 6.80648C34.0391 7.0972 34.9736 7.08943 35.8772 7.08265C36.912 7.07445 37.8903 7.06668 38.4737 7.50626C39.0468 7.93796 39.3075 8.87421 39.5834 9.86526C39.8272 10.7406 40.0792 11.6458 40.5945 12.3831C41.0878 13.089 41.8334 13.6187 42.5544 14.1309C43.4118 14.7399 44.2217 15.3153 44.4459 16.0506C44.6701 16.7861 44.319 17.7153 43.9474 18.6992C43.6349 19.5266 43.3117 20.3822 43.2962 21.2433C43.2801 22.1426 43.5759 23.0344 43.8621 23.8969C44.186 24.8734 44.4922 25.7956 44.2576 26.4739C44.0187 27.1641 43.2029 27.7032 42.3392 28.2741C41.5853 28.7724 40.8057 29.2876 40.2706 29.9978C39.7429 30.6984 39.4656 31.5819 39.1974 32.4364C38.8852 33.4315 38.5903 34.3712 37.9792 34.7983C37.5789 35.0781 35.4222 35.2294 33.3646 35.1223C33.1317 35.109 32.9044 35.1978 32.74 35.3633L32.7329 35.3704C32.4824 35.621 32.21 35.8512 31.9235 36.0544C31.554 36.3166 31.4669 36.8287 31.7291 37.1982C31.889 37.4237 32.142 37.5439 32.3988 37.5439C32.563 37.5439 32.7287 37.4948 32.8727 37.3925C33.1376 37.2045 33.3928 36.9985 33.6352 36.777C34.9539 36.8288 37.8984 36.8563 38.9191 36.1429C39.9882 35.3958 40.3998 34.0845 40.7628 32.9276C40.9998 32.1727 41.2235 31.4596 41.581 30.985C41.9461 30.5005 42.5766 30.0839 43.244 29.6428C44.2486 28.9789 45.3873 28.2263 45.8081 27.0104C46.2246 25.8069 45.8152 24.5734 45.4193 23.3804C45.1654 22.615 44.9255 21.8921 44.9367 21.273C44.947 20.6962 45.207 20.0078 45.4822 19.2792C45.9136 18.1372 46.4026 16.8428 46.0152 15.5723C45.6278 14.3021 44.4998 13.5007 43.5045 12.7937C42.8695 12.3425 42.2697 11.9164 41.9391 11.4435C41.5844 10.9359 41.3801 10.2022 41.1639 9.42546C40.8268 8.21457 40.4781 6.96245 39.4609 6.19616C38.4333 5.42201 37.0683 5.43284 35.8642 5.44235C35.0642 5.44848 34.3087 5.4546 33.7354 5.2562C33.1739 5.06206 32.5903 4.59502 31.9725 4.10087C31.0256 3.34334 29.9524 2.48485 28.6482 2.46134C27.3948 2.44099 26.3601 3.20202 25.3577 3.9402C24.6981 4.42571 24.0751 4.88443 23.4635 5.07091C22.8519 5.2574 22.079 5.22426 21.2607 5.18948C20.017 5.13654 18.7309 5.08163 17.7049 5.79848C16.6357 6.54562 16.2242 7.85691 15.8612 9.01388C15.6243 9.76879 15.4006 10.4818 15.0431 10.9563C14.678 11.4409 14.0476 11.8575 13.3802 12.2985C12.3755 12.9625 11.2368 13.7151 10.816 14.9311C10.3995 16.1346 10.8089 17.3682 11.2048 18.561C11.4587 19.3264 11.6986 20.0493 11.6874 20.6684C11.6772 21.2452 11.4171 21.9335 11.1419 22.6622C10.7104 23.8044 10.2214 25.0988 10.6088 26.3692Z" fill="white"/>
<path d="M35.6087 20.7893C35.6087 16.6504 32.2415 13.2832 28.1026 13.2832C23.9638 13.2832 20.5966 16.6504 20.5966 20.7893C20.5966 24.9283 23.9638 28.2955 28.1026 28.2955C32.2415 28.2955 35.6087 24.9283 35.6087 20.7893ZM28.1025 26.6548C24.8683 26.6548 22.2371 24.0235 22.2371 20.7893C22.2371 17.5551 24.8683 14.9238 28.1025 14.9238C31.3367 14.9238 33.968 17.5551 33.968 20.7893C33.968 24.0235 31.3369 26.6548 28.1025 26.6548Z" fill="white"/>
</svg>
