<?xml version="1.0" encoding="UTF-8"?>
<svg id="Layer_1" data-name="Layer 1" xmlns="http://www.w3.org/2000/svg" viewBox="0 0 1056.39 1006.13">
  <defs>
    <style>
      .cls-1 {
        fill: #fff;
      }
    </style>
  </defs>
  <path class="cls-1" d="M593.82,41.74c25.15,23.92,44.8,50.1,73.91,70.23,56.83,39.28,123.42,50.97,191.35,41.58,36.45-5.04,77.37-17.47,113.15-20.16,103.16-7.76,119.22,148.8,4.59,154.99-50.76,2.74-109.72.68-160.66-1.23-18.61-.7-34.76-.86-53.41-3.56-91.55-13.24-173.24-60.21-235.47-127.43l9.37,81.78c47.52,14.09,92.25,45.57,111.42,92.55,2.28,1.72,12.11-21.94,13.22-23.8,7.9-13.28,24.36-14.19,32.14-.49,12.89,22.69,19.23,41.13,36.7,62.44,15.84,19.32,30.3,28.48,48.37,43.93,8.63,7.38,12.49,18.41,3.92,27.79-6.28,6.88-21.48,15.57-29.54,22.87-15.44,13.97-31.18,33.67-41.92,51.51-6.79,11.28-11.67,26.61-18.23,36.47-5.59,8.39-15.64,11.07-24.55,5.87-7.08-4.12-14.24-24.33-18.78-32.5-1.62-2.92-11.88-20.19-13.31-20.88-1.9-.91-1.8,1.29-2.27,2.22-5.76,11.34-11.23,22.77-17.46,33.87-2.41,4.29-11.83,15.58-9.89,19.72.56,1.2,7.45,7.64,9.1,9.17,7.21,6.71,25.08,16.37,27.41,25,4.53,16.83-14.46,23.83-24.54,32.5-13.28,11.42-47.94,51.27-47.94,68.38.02,47.76,1.47,85.02-7.1,132.95-8.06,45.1-32.6,126.15-62.34,160.99-28.63,33.53-78.94,16.48-85.28-27.45-9.22-63.82-16.33-151.8-55.53-205.41-13.64-18.66-28.07-31.3-48.88-12.62-37.82,33.96-56.12,139.27-63.09,188.68-3.96,28.08-.93,62.75-36.37,71.88-34.39,8.86-50.27-9.9-65.38-36.5-44.57-78.48-60.63-177.16-56.82-266.87,1.06-24.95,8.85-51.09,4.09-75.78-5.35-27.82-32.81-57.12-47.54-82.35C7.18,475.15-20.73,388.81,20.02,316.04c22.67-40.49,64.65-67.32,108.83-79.18l1.74-1.68,11.54-109.79c-15.39-.38-29.37-12.39-34.22-26.74-3.69-10.93-3.37-48.89-2.28-61.61C107.2,18.85,121.34,3.18,139.28.04l366.95-.04c34.68,3.97,62.64,18,87.59,41.74ZM142.14,38.22v50.14l1.71,1.71h365.76c1.9,0,6.75,2.63,8.57,3.96,16.82,12.29,34.83,39.37,51.19,53.64,62.63,62.5,148.53,100.58,237.58,104.26,57.17,2.36,115.95-1.91,173.29,0,55.94-4.19,52.49-82.1-2.27-83.24-113.7,23.75-218.43,45.04-322.54-21.61-57.28-36.67-87.17-107.14-159.44-111.74l-351.56.64c-.53.25-2.19,1.88-2.3,2.26ZM160.37,296.3h54.69l13.3-80.7c7.93-19.38,32.88-14.82,35.59,5.04l-12.43,75.67h58.11v-109.96c0-.39,2.63-6.2,3.18-7.07,7.11-11.34,25.06-10.65,30.88,1.5.45.93,2.4,6.29,2.4,6.72v108.82h69.51c-3.62-24.8-13.86-49.63-18.81-74.06-.71-3.51-1.81-7.25-1.8-10.82.04-19.45,25.84-24.62,34.04-7.74l24.17,92.63h51.84c1.93-1.72.79-6.77.54-9.66-4.32-51.05-10.77-105.11-17.18-156.04-.17-1.34-.6-2.71-1.19-3.91l-308.57-.1-18.29,169.72ZM540.95,278.07c-1.11,19.11,14.52,49.06-13.21,54.59H138.25c-8.9-1.59-14.45-6.67-16.36-15.56l4.07-38.75-1.51-2.56c-59.66,21.8-92.64,67.99-88.27,132.74,4.36,64.51,40.59,112.06,73.63,163.37,33.62,52.21,17.13,84.88,15.19,140.82-2.65,76.07,13.85,166.23,50.73,233.09,3.7,6.7,11.85,22.99,19.51,23.88,17.41,2.02,13.93-15.67,15.28-26.74,7.79-64.12,29.09-192.75,83.94-232.83,47.28-34.54,87.58,5.65,108.83,46.89,32.27,62.62,40.69,138.43,50.06,207.45,11.29,10.64,17.82,4.78,24.72-5.79,43.32-66.38,64.2-181.42,57.18-259.56-2.03-22.58-24.15-51.19-40.42-66.63-6.81-6.46-25.14-17.67-29.08-23.39-4.56-6.62-4.25-14.88.55-21.11,5.57-7.23,23.36-17.61,31.41-25.57,10.84-10.73,22.36-26.36,29.77-39.73,7.45-13.44,10.23-33.67,30.9-29.01,11.44,2.58,15.12,22.47,21.49,30.92.97,1.29,1.21,2.33,3.22,1.88l26-55.1c-.33-1.68-15.38-15.09-17.99-17.26-10.67-8.9-26.08-13.43-22.54-30.5,1.95-9.4,17.83-17.38,25.34-23.65,4.45-3.72,28.78-26.5,29-30.07-7.08-43.7-41.23-77.48-81.94-91.81ZM727.38,417.52c-14.68-13.81-27.02-27.39-38.57-44.05-1.85-2.67-9.6-17.3-11.69-16.78-16.45,26.84-36.97,50.79-60.94,71.21,24.05,20.7,45.12,44.77,60.92,72.35,16.94-26.53,36.67-51.11,60.87-71.32l-.62-2.83c-4-1.96-6.82-5.63-9.96-8.59ZM511.54,600.35c16.53,12.65,29.58,29.69,41.37,46.87,12.19-16.76,24.43-33.92,41.06-46.67l.61-1.74c-5.65-6.34-12.96-12.25-18.89-18.78-8.39-9.24-15.2-19.75-22.77-29.62-11.78,17.18-24.84,34.22-41.37,46.87v3.06Z"/>
</svg>