<?xml version="1.0" encoding="UTF-8"?>
<svg id="Layer_1" data-name="Layer 1" xmlns="http://www.w3.org/2000/svg" xmlns:xlink="http://www.w3.org/1999/xlink" viewBox="0 0 1021.88 1057.12">
  <defs>
    <style>
      .cls-1 {
        fill: none;
      }

      .cls-2 {
        fill: #fff;
      }

      .cls-3 {
        clip-path: url(#clippath);
      }
    </style>
    <clipPath id="clippath">
      <rect class="cls-1" width="1021.88" height="1057.12"/>
    </clipPath>
  </defs>
  <g class="cls-3">
    <g>
      <path class="cls-2" d="M511.3,1041.49c-8.23,0-15.77-5.43-18.66-13.38-2.95-8.12-.57-17.6,5.91-23.14,6.18-5.28,15.09-6.23,22.16-2.32,7.45,4.13,11.67,12.92,10.29,21.56-1.58,9.83-10.06,17.28-19.7,17.28Z"/>
      <path class="cls-2" d="M1001.93,643.18H441.78c2.18-2.64,4.43-5.38,6.76-8.26,31.01-38.32,63.07-77.94,63.07-129.03,0-42.06-14.45-81.95-40.69-112.34-27.98-32.4-66.49-50.25-108.44-50.25-10.6,0-30.47,3.7-80.43,35.68-16.19,10.36-36.3,10.36-52.49,0-49.97-31.98-69.84-35.68-80.43-35.68-41.95,0-80.46,17.85-108.44,50.25C14.45,423.94,0,463.84,0,505.89c0,51.08,32.06,90.71,63.07,129.03,2.33,2.88,4.58,5.62,6.76,8.26H19.96c-11.02,0-19.96,9.24-19.96,20.65v357.02c0,11.4,8.94,20.65,19.96,20.65h400.76c11.02,0,19.96-9.24,19.96-20.65s-8.94-20.65-19.96-20.65H39.92v-315.72h60.66c6.03,11.89,8.75,24.83,8.75,44.93v20.79c0,67.2,46.44,123.98,110.42,135.01,5.79,1,11.71-.69,16.18-4.61,4.48-3.92,7.06-9.69,7.06-15.76v-167.78c0-7.5,5.58-13.76,12.44-13.96,3.5-.08,6.81,1.23,9.31,3.75,2.5,2.52,3.88,5.9,3.88,9.51v168.48c0,6.07,2.58,11.83,7.06,15.76,3.63,3.18,8.21,4.89,12.9,4.89,1.09,0,2.19-.09,3.28-.28,63.98-11.04,110.42-67.82,110.42-135.01v-20.79c0-20.11,2.72-33.04,8.75-44.93h221.67v98.99c0,69.53,54.68,126.1,121.9,126.1s121.9-56.57,121.9-126.1v-98.99h105.47v315.72h-380.8c-11.02,0-19.96,9.24-19.96,20.65s8.94,20.65,19.96,20.65h400.76c11.02,0,19.96-9.24,19.96-20.65v-357.02c0-11.4-8.93-20.65-19.96-20.65ZM362.37,729.41v20.79c0,38.31-21.6,71.77-53.83,86.96v-140.79c0-14.86-5.67-28.74-15.96-39.1-10.29-10.36-23.88-15.84-38.24-15.43-28.27.81-51.27,25.58-51.27,55.24v140.09c-32.23-15.19-53.83-48.65-53.83-86.96v-20.79c0-54.02-17.54-75.11-44.08-107.04-3.59-4.32-7.42-8.92-11.48-13.94-32.47-40.14-53.76-68.96-53.76-102.53s10.85-62.02,30.54-84.83c20.3-23.51,48.24-36.46,78.67-36.46,1.3,0,13.33.75,52.92,25.39l5.52,6.57c19.21,22.87,44.49,38.39,73.1,44.87,9.67,2.19,19.4,3.28,29.09,3.28,18.98,0,37.77-4.18,55.45-12.44,10.04-4.7,14.51-16.92,9.97-27.32-4.54-10.39-16.36-15.01-26.4-10.31-19.24,8.99-39.97,11-59.37,6.65,4.68-1.97,9.25-4.36,13.66-7.18,44.8-28.67,58.07-29.5,59.43-29.5,30.43,0,58.37,12.95,78.67,36.46,19.69,22.81,30.54,52.93,30.54,84.83,0,33.57-21.29,62.39-53.76,102.53-4.06,5.01-7.89,9.62-11.48,13.94-26.55,31.93-44.08,53.03-44.08,107.05ZM836.58,783.47c0,46.76-36.78,84.81-81.98,84.81s-81.98-38.05-81.98-84.81v-98.99h163.96v98.99Z"/>
      <path class="cls-2" d="M960.91,63.97c-26.91-31.17-63.96-48.34-104.32-48.34-10.24,0-29.4,3.55-77.36,34.25-15.18,9.72-34.05,9.72-49.23,0-47.96-30.7-67.12-34.25-77.37-34.25-40.36,0-77.41,17.17-104.32,48.34-25.22,29.22-39.12,67.57-39.12,108,0,49.17,30.75,87.18,60.5,123.93,4,4.94,7.77,9.48,11.31,13.74,13.56,16.32,22.52,27.09,27.47,40.22,2.99,7.93,10.37,13.14,18.59,13.14h19.03v38.79h-6.94c-11.02,0-19.96,9.24-19.96,20.65s8.94,20.65,19.96,20.65h6.94v36.73h-6.94c-11.02,0-19.96,9.24-19.96,20.65s8.94,20.65,19.96,20.65h6.94v18.72c0,4.72,1.56,9.29,4.42,12.96l37.84,48.53c3.79,4.86,9.5,7.69,15.54,7.69h101.45c6.04,0,11.75-2.82,15.53-7.69l37.84-48.53c2.86-3.67,4.42-8.25,4.42-12.96v-18.72h6.94c11.02,0,19.96-9.24,19.96-20.65s-8.93-20.65-19.96-20.65h-6.94v-36.73h6.94c11.02,0,19.96-9.24,19.96-20.65s-8.93-20.65-19.96-20.65h-6.94v-38.79h19.03c8.23,0,15.61-5.22,18.6-13.14,4.95-13.13,13.91-23.91,27.47-40.22,3.54-4.26,7.31-8.8,11.31-13.74,29.74-36.76,60.49-74.77,60.49-123.93,0-40.43-13.89-78.78-39.12-108ZM823.21,532.54l-27.42,35.17h-82.36l-27.43-35.17v-11.43h137.21v11.43ZM823.21,479.81h-137.21v-36.73h137.21v36.73ZM823.21,401.79h-137.21v-38.78h137.21v38.78ZM908.92,269.4c-3.88,4.79-7.53,9.19-10.97,13.32-11.52,13.85-21.18,25.48-28.42,39h-229.86c-7.23-13.51-16.9-25.14-28.42-39-3.43-4.13-7.09-8.53-10.97-13.32-30.92-38.22-51.19-65.64-51.19-97.43s10.29-58.85,28.97-80.49c19.24-22.28,45.71-34.55,74.55-34.55.51,0,13.01.32,56.36,28.07,28.14,18.01,63.1,18.01,91.24,0,43.36-27.75,55.85-28.07,56.36-28.07,28.84,0,55.31,12.27,74.55,34.55,18.68,21.64,28.97,50.22,28.97,80.49,0,31.79-20.27,59.21-51.19,97.43Z"/>
    </g>
  </g>
</svg>