<svg width="43" height="37" viewBox="0 0 43 37" fill="none" xmlns="http://www.w3.org/2000/svg">
<path d="M34.7916 26.6158C34.4544 26.6158 34.1478 26.3985 34.0339 26.0817C33.9203 25.766 34.0205 25.4004 34.2806 25.1878C34.5451 24.9716 34.9264 24.9473 35.2167 25.1267C35.5068 25.306 35.6532 25.6619 35.5757 25.9936C35.4916 26.3531 35.161 26.6158 34.7916 26.6158Z" fill="white"/>
<path d="M30.8351 9.34323C29.6339 7.99849 27.9805 7.25793 26.1795 7.25793C25.7274 7.25793 24.8774 7.41196 22.7248 8.7438C22.0039 9.18976 21.1082 9.18976 20.3873 8.7438C18.2346 7.41196 17.3847 7.25793 16.9325 7.25793C15.1315 7.25793 13.4782 7.99849 12.277 9.34323C11.1497 10.6054 10.5288 12.2628 10.5288 14.0101C10.5288 16.1288 11.9113 17.7805 13.2482 19.3778C13.4293 19.5941 13.6 19.7926 13.7603 19.979C14.8258 21.2179 15.2668 21.7308 15.2668 23.3743V24.2455C15.2668 27.0315 17.2587 29.3858 20.0029 29.8434C20.2366 29.8822 20.4754 29.8165 20.6561 29.6635C20.8368 29.5104 20.941 29.2856 20.941 29.0488V22.0199C20.941 21.6736 21.2089 21.3845 21.5383 21.3755C21.707 21.3715 21.8649 21.4326 21.9849 21.5494C22.105 21.6662 22.1711 21.8229 22.1711 21.9904V29.0489C22.1711 29.2857 22.2753 29.5105 22.456 29.6636C22.6026 29.7877 22.7874 29.8545 22.9767 29.8545C23.0207 29.8545 23.065 29.8509 23.1092 29.8435C25.8534 29.386 27.8453 27.0317 27.8453 24.2457V23.3745C27.8453 21.7309 28.2863 21.2181 29.3518 19.9791C29.5121 19.7928 29.6829 19.5942 29.8639 19.3779C31.2009 17.7807 32.5833 16.1289 32.5833 14.0103C32.5832 12.2628 31.9624 10.6055 30.8351 9.34323ZM28.6283 18.3437C28.4522 18.5541 28.2861 18.7473 28.1302 18.9285C26.9884 20.2562 26.234 21.1333 26.234 23.3744V24.2456C26.234 25.9064 25.2461 27.353 23.7822 27.98V21.9903C23.7822 21.3841 23.5428 20.8174 23.1083 20.3946C22.6889 19.9866 22.1403 19.764 21.5571 19.764C21.5362 19.764 21.5151 19.7643 21.494 19.7649C20.3007 19.7977 19.3299 20.8092 19.3299 22.0198V27.98C17.8659 27.3529 16.878 25.9064 16.878 24.2456V23.3744C16.878 21.1333 16.1237 20.2562 14.9818 18.9285C14.8259 18.7473 14.6598 18.5542 14.4837 18.3437C13.068 16.6523 12.1399 15.4369 12.1399 14.0102C12.1399 12.6593 12.6154 11.3831 13.4786 10.4166C14.37 9.41871 15.5966 8.86915 16.9325 8.86915C16.9904 8.86915 17.5281 8.90081 19.2648 9.94619L19.5101 10.2284C20.3343 11.1769 21.4188 11.8203 22.6462 12.0891C23.0609 12.1799 23.4785 12.225 23.8941 12.225C24.7085 12.225 25.5147 12.0516 26.2729 11.7091C26.6783 11.5259 26.8585 11.0488 26.6754 10.6433C26.4922 10.2379 26.0149 10.0577 25.6096 10.2409C24.7007 10.6515 23.7163 10.7193 22.8101 10.4781C23.0728 10.3864 23.3284 10.265 23.5724 10.1141C25.528 8.90419 26.1185 8.86923 26.1794 8.86923C27.5154 8.86923 28.742 9.41879 29.6333 10.4166C30.4966 11.3832 30.972 12.6594 30.972 14.0103C30.9721 15.4369 30.0441 16.6523 28.6283 18.3437Z" fill="white"/>
<path d="M21.5561 36.5033C21.4288 36.5033 21.3015 36.4732 21.1853 36.413C20.9797 36.3064 16.0931 33.754 11.1264 29.5404C8.19215 27.0511 5.84973 24.4997 4.16408 21.9575C2.02055 18.7242 0.933594 15.4909 0.933594 12.3472C0.933594 5.87472 6.2128 0.608887 12.7018 0.608887C16.0943 0.608887 19.333 2.09113 21.5561 4.61884C23.7791 2.09113 27.0179 0.608887 30.4104 0.608887C36.8994 0.608887 42.1786 5.87472 42.1786 12.3472C42.1786 16.001 40.716 19.7598 37.8312 23.519C37.5603 23.872 37.0547 23.9386 36.7017 23.6678C36.3488 23.3969 36.2822 22.8912 36.553 22.5383C39.2168 19.0668 40.5675 15.638 40.5675 12.3472C40.5675 6.7631 36.011 2.2201 30.4104 2.2201C27.182 2.2201 24.1149 3.77517 22.2058 6.37989C22.0541 6.58692 21.8128 6.7092 21.5561 6.7092C21.2995 6.7092 21.0581 6.58684 20.9064 6.37989C18.9972 3.77517 15.9301 2.2201 12.7018 2.2201C7.10118 2.22002 2.54473 6.76301 2.54473 12.3472C2.54473 18.7937 7.77833 24.587 12.1688 28.3118C16.229 31.7565 20.3256 34.1066 21.5559 34.7826C22.854 34.0688 27.3434 31.4899 31.6087 27.7372C31.9427 27.4433 32.4516 27.4758 32.7456 27.8098C33.0395 28.1438 33.0069 28.6528 32.6729 28.9467C27.4895 33.5074 22.1517 36.2964 21.9269 36.4129C21.8107 36.4732 21.6834 36.5033 21.5561 36.5033Z" fill="white"/>
</svg>
