<svg width="43" height="43" viewBox="0 0 43 43" fill="none" xmlns="http://www.w3.org/2000/svg">
<path d="M35.1095 9.67372C34.7507 9.67372 34.4264 9.42665 34.3322 9.08042C34.247 8.76738 34.3623 8.42606 34.6196 8.22853C34.874 8.03318 35.232 8.00853 35.5106 8.16763C35.7939 8.32939 35.954 8.65613 35.9089 8.979C35.8542 9.37188 35.5063 9.67372 35.1095 9.67372Z" fill="white"/>
<path d="M20.6906 13.9904C18.9326 12.9025 18.2219 12.7767 17.8403 12.7767C16.3521 12.7767 14.986 13.3887 13.9936 14.4998C13.0649 15.5398 12.5533 16.9048 12.5533 18.3431C12.5533 19.948 13.4677 21.1793 14.5722 22.5091L14.719 22.6854C15.4884 23.6073 15.7763 23.9524 15.7763 24.9871V25.6845C15.7763 27.9939 17.4271 29.9453 19.7017 30.3246C19.9354 30.3632 20.1742 30.2977 20.3549 30.1448C20.5355 29.9917 20.6397 29.7669 20.6397 29.53V24.784C20.6397 24.2901 21.0414 23.8856 21.5351 23.8822C21.7806 23.8818 22.0049 23.9736 22.1766 24.144C22.3484 24.3146 22.443 24.5419 22.443 24.784V29.53C22.443 29.7668 22.5472 29.9916 22.7278 30.1448C22.8744 30.2689 23.0592 30.3356 23.2485 30.3356C23.2926 30.3356 23.337 30.332 23.3811 30.3246C25.6556 29.9453 27.3065 27.9938 27.3065 25.6845V24.9871C27.3065 23.9523 27.5943 23.6073 28.3636 22.6854L28.5105 22.5091C29.615 21.1794 30.5293 19.9481 30.5293 18.3431C30.5293 16.9048 30.0178 15.5398 29.089 14.4998C28.0967 13.3887 26.7306 12.7767 25.2425 12.7767C24.8609 12.7767 24.1502 12.9026 22.3921 13.9904C21.8672 14.315 21.2152 14.3151 20.6906 13.9904ZM25.2425 14.3879C26.2655 14.3879 27.2048 14.8088 27.8873 15.573C28.5521 16.3174 28.9182 17.3011 28.9182 18.3431C28.9182 19.4119 28.2044 20.3562 27.2712 21.4797L27.1265 21.6533C26.2958 22.649 25.6954 23.3685 25.6954 24.9872V25.6846C25.6954 26.8617 25.0434 27.8975 24.0541 28.4197V24.784C24.0541 24.1094 23.7906 23.4762 23.3119 23.0008C22.8375 22.5297 22.2096 22.2709 21.5417 22.2709C21.5358 22.2709 21.5299 22.271 21.5239 22.271C20.1479 22.2806 19.0285 23.4078 19.0285 24.7839V28.4196C18.0392 27.8975 17.3873 26.8617 17.3873 25.6845V24.9871C17.3873 23.3683 16.7869 22.6489 15.956 21.653L15.8114 21.4796C14.8782 20.3561 14.1644 19.4117 14.1644 18.343C14.1644 17.301 14.5305 16.3174 15.1952 15.5729C15.8778 14.8087 16.8171 14.3878 17.8397 14.3878C17.8569 14.3881 18.2556 14.4052 19.6025 15.214L19.7821 15.4207C20.7209 16.5012 22.0398 17.0791 23.3938 17.0791C24.0622 17.0791 24.7395 16.9381 25.3833 16.6472C25.7886 16.4641 25.9689 15.9868 25.7857 15.5814C25.6024 15.176 25.1251 14.9957 24.7198 15.179C24.1912 15.418 23.6289 15.5046 23.0852 15.4505C23.1373 15.4221 23.1888 15.3921 23.2398 15.3606C24.7803 14.4073 25.2248 14.3882 25.2425 14.3879Z" fill="white"/>
<path d="M41.3731 20.7505H40.9045C40.7669 17.4182 39.7776 14.1857 38.0223 11.3555C37.7879 10.9775 37.2912 10.8608 36.9131 11.0955C36.5351 11.33 36.4186 11.8266 36.6531 12.2047C38.2501 14.7797 39.1553 17.7187 39.2917 20.7505H37.1264C36.7198 12.7902 30.3201 6.38591 22.3617 5.97169V3.806C25.8028 3.96148 29.08 5.09483 31.8858 7.10738C32.2474 7.36677 32.7506 7.28372 33.0099 6.92226C33.2692 6.5608 33.1863 6.05748 32.8248 5.79817C29.7437 3.5881 26.1419 2.34986 22.3617 2.19334V1.73916C22.3617 1.29433 22.0009 0.933594 21.5561 0.933594C21.1113 0.933594 20.7505 1.29433 20.7505 1.73916V2.19205C15.8707 2.38659 11.3111 4.37916 7.83779 7.85261C4.36789 11.3223 2.37588 15.8763 2.17787 20.7505H1.73916C1.29433 20.7505 0.933594 21.1113 0.933594 21.5561C0.933594 22.0009 1.29433 22.3617 1.73916 22.3617H2.17787C2.37588 27.2359 4.36789 31.7899 7.83779 35.2596C11.3111 38.733 15.8707 40.7256 20.7505 40.9202V41.3731C20.7505 41.8179 21.1113 42.1786 21.5561 42.1786C22.0009 42.1786 22.3617 41.8179 22.3617 41.3731V40.919C27.2304 40.7176 31.7785 38.726 35.2449 35.2597C38.7148 31.7899 40.7069 27.236 40.9048 22.3618H41.3731C41.8179 22.3618 42.1786 22.001 42.1786 21.5562C42.1786 21.1114 41.8179 20.7505 41.3731 20.7505ZM35.513 20.7505H35.3545C34.9097 20.7505 34.5489 21.1113 34.5489 21.5561C34.5489 22.0009 34.9097 22.3617 35.3545 22.3617H35.513C35.1098 29.4334 29.4315 35.1163 22.3617 35.5269V35.3545C22.3617 34.9097 22.0009 34.5489 21.5561 34.5489C21.1113 34.5489 20.7505 34.9097 20.7505 35.3545V35.5286C13.667 35.1321 7.97344 29.4433 7.56961 22.3617H7.75771C8.20255 22.3617 8.56328 22.0009 8.56328 21.5561C8.56328 21.1113 8.20255 20.7505 7.75771 20.7505H7.56961C7.97344 13.6689 13.667 7.98013 20.7505 7.58363V7.75771C20.7505 8.20255 21.1113 8.56328 21.5561 8.56328C22.0009 8.56328 22.3617 8.20255 22.3617 7.75771V7.58532C29.4315 7.99592 35.1098 13.6788 35.513 20.7505ZM20.7505 3.80488V5.97024C12.7784 6.37004 6.36336 12.7803 5.95614 20.7505H3.7907C4.20154 11.5874 11.5855 4.20822 20.7505 3.80488ZM3.7907 22.3617H5.95614C6.36336 30.3319 12.7784 36.7422 20.7505 37.1421V39.3074C11.5855 38.904 4.20154 31.5248 3.7907 22.3617ZM22.3617 39.3061V37.1405C30.3201 36.7264 36.7198 30.322 37.1265 22.3617H39.292C38.8815 31.5149 31.5131 38.8881 22.3617 39.3061Z" fill="white"/>
</svg>
