<svg width="57" height="56" viewBox="0 0 57 56" fill="none" xmlns="http://www.w3.org/2000/svg">
<path d="M51.0957 23.5697H48.7785V20.3141C48.7785 18.4705 47.2786 16.9706 45.435 16.9706H42.064L34.4691 5.93218C34.2415 5.60121 33.8077 5.48374 33.4441 5.6548L9.38522 16.9706H5.822C3.97837 16.9706 2.47852 18.4705 2.47852 20.3141V30.7479C2.47852 31.2011 2.84569 31.5683 3.29883 31.5683C3.75197 31.5683 4.11914 31.2011 4.11914 30.7479V20.3141C4.11914 19.3751 4.88302 18.6113 5.822 18.6113H9.56613C9.56711 18.6113 9.5682 18.6115 9.56919 18.6115C9.5705 18.6115 9.57181 18.6113 9.57312 18.6113H41.6399C41.6399 18.6113 41.6402 18.6113 41.6405 18.6113H45.4349C46.3739 18.6113 47.1377 19.3751 47.1377 20.3141V23.5697H19.0777C17.7208 23.5697 16.6168 24.6737 16.6168 26.0306V39.2915C16.6168 40.6485 17.7208 41.7525 19.0777 41.7525H47.138V46.5399C47.138 47.479 46.3741 48.2429 45.4351 48.2429H5.822C4.88302 48.2429 4.11914 47.479 4.11914 46.5399V37.9665C4.11914 37.5133 3.75197 37.1462 3.29883 37.1462C2.84569 37.1462 2.47852 37.5133 2.47852 37.9665V46.5399C2.47852 48.3836 3.97837 49.8835 5.822 49.8835H45.435C47.2786 49.8835 48.7785 48.3836 48.7785 46.5399V41.7525H51.0957C52.4526 41.7525 53.5566 40.6485 53.5566 39.2915V26.0306C53.5566 24.6737 52.4526 23.5697 51.0957 23.5697ZM33.5122 7.43586L40.0725 16.9706H13.2402L33.5122 7.43586ZM51.916 39.2915C51.916 39.7439 51.5481 40.1119 51.0957 40.1119H19.0777C18.6253 40.1119 18.2574 39.7439 18.2574 39.2915V26.0306C18.2574 25.5782 18.6253 25.2103 19.0777 25.2103H51.0957C51.5481 25.2103 51.916 25.5782 51.916 26.0306V39.2915Z" fill="white"/>
<path d="M24.2599 29.054C22.2709 29.054 20.6528 30.672 20.6528 32.661C20.6528 34.65 22.2709 36.2681 24.2599 36.2681C26.2489 36.2681 27.867 34.6499 27.867 32.661C27.867 30.6722 26.2488 29.054 24.2599 29.054ZM24.2599 34.6275C23.1757 34.6275 22.2935 33.7454 22.2935 32.661C22.2935 31.5768 23.1756 30.6946 24.2599 30.6946C25.3443 30.6946 26.2264 31.5767 26.2264 32.661C26.2264 33.7453 25.3443 34.6275 24.2599 34.6275Z" fill="white"/>
<path d="M3.29883 35.5792C3.75197 35.5792 4.11914 35.2121 4.11914 34.7589V33.9556C4.11914 33.5024 3.75197 33.1353 3.29883 33.1353C2.84569 33.1353 2.47852 33.5024 2.47852 33.9556V34.7589C2.47852 35.212 2.84569 35.5792 3.29883 35.5792Z" fill="white"/>
</svg>
