<svg width="57" height="56" viewBox="0 0 57 56" fill="none" xmlns="http://www.w3.org/2000/svg">
<path d="M42.4578 31.8294L35.9127 29.8121C35.7864 29.7668 35.6574 29.7264 35.5262 29.6908L32.862 28.3587V26.4803C34.7921 25.0238 36.0436 22.7145 36.051 20.1175H38.0927C38.726 20.1175 39.2411 19.6023 39.2411 18.969V14.841C39.2411 14.3302 38.9057 13.8966 38.4437 13.7479V11.3234C38.4437 6.47434 34.4987 2.5293 29.6496 2.5293H24.7856C22.6292 2.5293 20.7492 3.95948 20.1597 6.03466L19.8117 6.26959C18.4681 7.15881 17.6659 8.65462 17.6659 10.2707V13.7479C17.2039 13.8966 16.8686 14.3302 16.8686 14.841V18.969C16.8686 19.6023 17.3837 20.1175 18.017 20.1175H20.0587C20.066 22.7145 21.3176 25.0238 23.2477 26.4802V28.3586L20.5834 29.6907C20.4519 29.7263 20.323 29.7667 20.1965 29.8121L13.6537 31.8288C11.2842 32.5527 9.69226 34.7041 9.69226 37.1822V52.7869C9.69226 53.2399 10.0595 53.6072 10.5126 53.6072H45.5971C46.0501 53.6072 46.4174 53.2399 46.4174 52.7869V45.6105C46.4174 45.1574 46.0501 44.7901 45.5971 44.7901C45.1441 44.7901 44.7768 45.1574 44.7768 45.6105V51.9666H11.3329V37.1822C11.3329 35.4304 12.4582 33.9095 14.1351 33.3972L17.3445 32.408C17.0384 33.0609 16.8687 33.7864 16.8687 34.5454V40.0906C15.0498 40.4703 13.6791 42.0859 13.6791 44.0158V47.2054C13.6791 47.6584 14.0464 48.0257 14.4994 48.0257H16.0942C16.5472 48.0257 16.9145 47.6584 16.9145 47.2054C16.9145 46.7523 16.5472 46.3851 16.0942 46.3851H15.3197V44.0158C15.3197 42.7094 16.3825 41.6466 17.689 41.6466C18.9955 41.6466 20.0582 42.7094 20.0582 44.0158V46.3851H19.2837C18.8307 46.3851 18.4634 46.7523 18.4634 47.2054C18.4634 47.6584 18.8307 48.0257 19.2837 48.0257H20.8785C21.3315 48.0257 21.6988 47.6584 21.6988 47.2054V44.0158C21.6988 42.0859 20.3282 40.4703 18.5093 40.0906V34.5454C18.5093 33.3065 19.1779 32.1998 20.211 31.6072C20.9475 36.0254 23.1793 40.0422 26.5698 43.0089L27.5147 43.8356C27.5266 43.8461 27.5392 43.8554 27.5517 43.8651C27.559 43.8707 27.566 43.877 27.5735 43.8825C27.5954 43.8983 27.6178 43.913 27.6407 43.9263C27.6476 43.9304 27.6548 43.9337 27.6619 43.9376C27.6791 43.947 27.6964 43.9561 27.714 43.9642C27.7223 43.9679 27.7307 43.9712 27.739 43.9747C27.756 43.9818 27.773 43.9883 27.7904 43.9942C27.7991 43.9972 27.8077 43.9999 27.8165 44.0025C27.8342 44.0079 27.852 44.0126 27.8701 44.0168C27.8784 44.0187 27.8867 44.0207 27.8951 44.0223C27.9145 44.0262 27.9339 44.0291 27.9534 44.0315C27.9606 44.0324 27.9677 44.0337 27.9749 44.0344C28.0014 44.0369 28.028 44.0385 28.0546 44.0385H28.0552C28.0818 44.0385 28.1084 44.0369 28.1349 44.0344C28.1421 44.0337 28.1492 44.0324 28.1563 44.0315C28.1758 44.0291 28.1952 44.0262 28.2146 44.0223C28.223 44.0207 28.2314 44.0186 28.2399 44.0167C28.2577 44.0125 28.2755 44.0078 28.2931 44.0025C28.302 43.9999 28.3107 43.9972 28.3194 43.9941C28.3365 43.9883 28.3534 43.9818 28.3702 43.9748C28.3788 43.9713 28.3874 43.9679 28.3958 43.9639C28.4131 43.9559 28.4302 43.9471 28.447 43.9378C28.4543 43.9339 28.4618 43.9304 28.469 43.9261C28.4919 43.9126 28.5142 43.8981 28.536 43.8823C28.5437 43.8768 28.5508 43.8704 28.5584 43.8646C28.5706 43.8551 28.5831 43.8459 28.5949 43.8355L29.5398 43.0088C32.9304 40.0421 35.1621 36.0253 35.8986 31.6072C36.9317 32.1998 37.6003 33.3065 37.6003 34.5454V40.1125C36.2251 40.4761 35.2081 41.7305 35.2081 43.2184C35.2081 44.9898 36.6493 46.4309 38.4206 46.4309C40.1919 46.4309 41.633 44.9898 41.633 43.2184C41.633 41.7305 40.6161 40.4761 39.2409 40.1125V34.5454C39.2409 33.7865 39.0713 33.0609 38.7651 32.408L41.9764 33.3979C43.6512 33.9096 44.7766 35.4304 44.7766 37.1824V38.4343C44.7766 38.8873 45.1439 39.2546 45.5969 39.2546C46.0499 39.2546 46.4172 38.8873 46.4172 38.4343V37.1824C46.4172 34.7042 44.8253 32.5528 42.4576 31.8294H42.4578ZM32.1443 29.8341L33.938 30.7309L31.1893 34.0294L29.283 32.1231L32.1443 29.8341ZM36.0516 18.4768V15.3332H36.8304C36.9202 15.679 37.2292 15.9357 37.6006 15.946V18.4768H36.0516ZM20.7237 7.6335L21.3376 7.21886C21.5079 7.1038 21.6289 6.92912 21.6765 6.72919L21.714 6.57147C22.0691 5.15747 23.3322 4.16992 24.7857 4.16992H29.6497C33.5941 4.16992 36.8032 7.37898 36.8032 11.3234V13.6925H36.0505C36.0383 13.2502 35.6767 12.8951 35.2313 12.8951H32.8392C30.4445 12.8951 28.0708 12.1039 26.1549 10.667C25.9746 10.5318 25.7465 10.4768 25.5243 10.5148C25.302 10.5528 25.1053 10.6807 24.9803 10.8683L24.2701 11.9335C23.8687 12.5356 23.197 12.8951 22.4733 12.8951H20.8785C20.4332 12.8951 20.0716 13.2501 20.0593 13.6925H19.3065V10.2707C19.3065 9.20664 19.8338 8.22227 20.7236 7.6335H20.7237ZM18.5093 15.946C18.8807 15.9357 19.1896 15.679 19.2794 15.3332H20.0582V18.4768H18.5093V15.946ZM21.6988 20.0946V14.5358H22.4733C23.7468 14.5358 24.9289 13.9032 25.6352 12.8436L25.881 12.475C27.9417 13.8089 30.3809 14.5358 32.8392 14.5358H34.411V20.0946C34.411 23.5993 31.5597 26.4506 28.0549 26.4506C24.5501 26.4506 21.6988 23.5993 21.6988 20.0946ZM28.0549 28.0912C29.1794 28.0912 30.2497 27.8568 31.2214 27.4361V28.4714L28.0549 31.0046L24.8883 28.4714V27.4361C25.86 27.8568 26.9304 28.0912 28.0549 28.0912ZM23.9654 29.8341L26.8267 32.1232L24.9204 34.0295L22.1717 30.731L23.9654 29.8342V29.8341ZM28.4596 41.7741L28.0549 42.1283L27.6501 41.7741C25.1031 39.5456 23.2707 36.6695 22.3223 33.4745L24.2351 35.7699C24.3826 35.947 24.5979 36.0538 24.8281 36.0642C25.0577 36.0745 25.2824 35.9878 25.4453 35.8248L28.0548 33.2153L30.6643 35.8248C30.8185 35.979 31.0273 36.0651 31.2443 36.0651C31.2566 36.0651 31.2691 36.0649 31.2815 36.0642C31.5117 36.0538 31.7269 35.947 31.8745 35.7699L33.7874 33.4744C32.839 36.6694 31.0066 39.5455 28.4596 41.7741ZM39.9925 43.2185C39.9925 44.0852 39.2874 44.7904 38.4207 44.7904C37.554 44.7904 36.8489 44.0852 36.8489 43.2185C36.8489 42.3519 37.554 41.6467 38.4207 41.6467C39.2874 41.6467 39.9925 42.3519 39.9925 43.2185Z" fill="white"/>
<path d="M45.597 40.8035C45.144 40.8035 44.7767 41.1707 44.7767 41.6238V42.4211C44.7767 42.8742 45.144 43.2414 45.597 43.2414C46.0501 43.2414 46.4174 42.8742 46.4174 42.4211V41.6238C46.4174 41.1707 46.0501 40.8035 45.597 40.8035Z" fill="white"/>
</svg>
