<svg width="57" height="56" viewBox="0 0 57 56" fill="none" xmlns="http://www.w3.org/2000/svg">
<g clip-path="url(#clip0_57_266)">
<path d="M45.9879 38.9429C45.5301 38.9429 45.1138 38.6478 44.9591 38.2176C44.8049 37.7891 44.941 37.2927 45.2941 37.004C45.6532 36.7104 46.171 36.6775 46.5651 36.9211C46.9589 37.1645 47.1578 37.6477 47.0526 38.0981C46.9384 38.5862 46.4895 38.9429 45.9879 38.9429Z" fill="white"/>
<path d="M40.616 15.4912C38.9851 13.6654 36.7403 12.6599 34.295 12.6599C33.6812 12.6599 32.5271 12.869 29.6043 14.6773C28.6256 15.2828 27.4095 15.2828 26.4306 14.6773C23.5079 12.869 22.3539 12.6599 21.74 12.6599C19.2947 12.6599 17.0498 13.6654 15.419 15.4912C13.8884 17.2049 13.0454 19.4553 13.0454 21.8276C13.0454 24.7043 14.9225 26.9468 16.7377 29.1155C16.9835 29.4092 17.2153 29.6788 17.4329 29.9318C18.8796 31.6139 19.4784 32.3102 19.4784 34.5418V35.7246C19.4784 39.5073 22.1828 42.7038 25.9088 43.3251C26.2261 43.3778 26.5503 43.2885 26.7956 43.0808C27.0409 42.873 27.1825 42.5677 27.1825 42.2463V32.7028C27.1825 32.2327 27.5462 31.8401 27.9934 31.8279C28.2225 31.8224 28.4369 31.9054 28.5997 32.064C28.7628 32.2226 28.8526 32.4353 28.8526 32.6627V42.2464C28.8526 42.5678 28.994 42.8731 29.2395 43.0809C29.4384 43.2495 29.6894 43.3401 29.9464 43.3401C30.0062 43.3401 30.0663 43.3352 30.1263 43.3253C33.8523 42.704 36.5567 39.5075 36.5567 35.7248V34.542C36.5567 32.3104 37.1555 31.6142 38.6022 29.932C38.8197 29.679 39.0516 29.4094 39.2974 29.1157C41.1127 26.947 42.9897 24.7044 42.9897 21.8278C42.9896 19.4553 42.1466 17.205 40.616 15.4912ZM37.6198 27.7116C37.3807 27.9971 37.1552 28.2594 36.9435 28.5055C35.3932 30.3082 34.3689 31.4991 34.3689 34.5419V35.7247C34.3689 37.9797 33.0277 39.9437 31.04 40.7951V32.6626C31.04 31.8396 30.7151 31.0701 30.1251 30.496C29.5557 29.9421 28.8107 29.6399 28.019 29.6399C27.9905 29.6399 27.962 29.6403 27.9333 29.6411C26.3131 29.6857 24.995 31.059 24.995 32.7027V40.7951C23.0073 39.9436 21.666 37.9797 21.666 35.7247V34.5419C21.666 31.4991 20.6418 30.3082 19.0914 28.5055C18.8798 28.2594 18.6543 27.9972 18.4152 27.7116C16.4929 25.415 15.2329 23.7648 15.2329 21.8277C15.2329 19.9936 15.8784 18.2608 17.0505 16.9485C18.2607 15.5937 19.9262 14.8475 21.74 14.8475C21.8186 14.8475 22.5486 14.8905 24.9066 16.3099L25.2396 16.693C26.3588 17.9808 27.8312 18.8544 29.4977 19.2193C30.0608 19.3426 30.6278 19.4039 31.192 19.4039C32.2977 19.4039 33.3923 19.1685 34.4218 18.7034C34.9723 18.4547 35.2169 17.8069 34.9682 17.2564C34.7195 16.7059 34.0716 16.4612 33.5212 16.71C32.2872 17.2676 30.9506 17.3595 29.7202 17.0321C30.0768 16.9075 30.4239 16.7428 30.7552 16.5378C33.4104 14.8951 34.2122 14.8476 34.2949 14.8476C36.1088 14.8476 37.7742 15.5938 38.9844 16.9486C40.1564 18.2609 40.8019 19.9937 40.8019 21.8278C40.8021 23.7648 39.5421 25.415 37.6198 27.7116Z" fill="white"/>
<path d="M28.0176 52.3676C27.8448 52.3676 27.672 52.3267 27.5141 52.2449C27.235 52.1002 20.6002 48.6348 13.8568 42.9138C9.87281 39.5339 6.69241 36.0699 4.40373 32.6182C1.49338 28.2282 0.0175781 23.8383 0.0175781 19.5699C0.0175781 10.7819 7.18536 3.63232 15.9957 3.63232C20.6018 3.63232 24.9992 5.64482 28.0176 9.07679C31.0358 5.64482 35.4332 3.63232 40.0394 3.63232C48.8498 3.63232 56.0176 10.7819 56.0176 19.5699C56.0176 24.5308 54.0317 29.6343 50.1149 34.7384C49.7471 35.2176 49.0606 35.308 48.5814 34.9403C48.1022 34.5725 48.0118 33.8859 48.3795 33.4067C51.9962 28.6934 53.8301 24.038 53.8301 19.5699C53.8301 11.9881 47.6436 5.81993 40.0394 5.81993C35.6561 5.81993 31.4918 7.93131 28.8997 11.4678C28.6937 11.7489 28.366 11.915 28.0176 11.915C27.6691 11.915 27.3414 11.7488 27.1355 11.4678C24.5433 7.93131 20.3789 5.81993 15.9957 5.81993C8.39155 5.81982 2.20508 11.988 2.20508 19.5699C2.20508 28.3225 9.31095 36.1883 15.272 41.2456C20.7847 45.9226 26.3469 49.1135 28.0174 50.0313C29.7797 49.0622 35.8752 45.5607 41.6664 40.4655C42.1198 40.0665 42.8109 40.1105 43.21 40.5641C43.609 41.0176 43.5648 41.7087 43.1113 42.1077C36.0736 48.2999 28.8262 52.0867 28.521 52.2448C28.3632 52.3267 28.1904 52.3676 28.0176 52.3676Z" fill="white"/>
</g>
<defs>
<clipPath id="clip0_57_266">
<rect width="56" height="56" fill="white" transform="translate(0.0175781)"/>
</clipPath>
</defs>
</svg>
