<?xml version="1.0" encoding="UTF-8"?>
<svg id="Layer_1" data-name="Layer 1" xmlns="http://www.w3.org/2000/svg" viewBox="0 0 864.53 854.72">
  <defs>
    <style>
      .cls-1 {
        fill: #fff;
      }
    </style>
  </defs>
  <path class="cls-1" d="M620.94,630.36c-6.85,0-13.18-4.25-15.69-10.56-2.58-6.47-.76-14.09,4.55-18.69,5.38-4.66,13.38-5.43,19.57-1.9,6.19,3.53,9.54,10.78,8.13,17.72-1.57,7.7-8.62,13.42-16.56,13.42Z"/>
  <path class="cls-1" d="M341.43,854.72c-29.87,0-58.54-12.96-84.25-38.37l-45.91-45.48c-20.67-20.52-31.87-34.99-31.87-52.73s11.2-32.21,31.86-52.72l97.33-96.42c14.78-14.67,27.55-25.9,45.87-25.91h.03c23.68,0,46.59,17.69,103.12,73.12l166.06-164.83c-40.74-40.72-62.03-64.6-69.97-83.83-12.32-29.8,6.78-48.75,22.12-63.98l97.33-96.42c20.67-20.51,35.26-31.64,53.1-31.64,17.85,0,32.43,11.12,53.12,31.65l45.88,45.46c35.03,34.63,46.95,74.48,34.46,115.22-9.93,32.37-32.46,57.69-45.92,72.82-2.84,3.19-5.3,5.95-6.74,7.81-.37.47-.77.93-1.19,1.36l-118.55,121.86c-6.46,6.64-17.15,6.85-23.88.46-6.72-6.39-6.93-16.96-.47-23.6l117.97-121.26c2.02-2.52,4.58-5.39,7.5-8.68,38.15-42.88,66.12-89.8,12.93-142.39l-45.91-45.48c-6.59-6.54-22-21.84-29.2-21.84s-22.61,15.29-29.18,21.82l-97.33,96.42c-17.77,17.64-17.7,20.72-14.78,27.78,6.43,15.55,31.14,41.76,74.48,84.67,6.58,6.51,6.58,17.06.01,23.58l-189.83,188.44c-3.17,3.14-7.47,4.91-11.95,4.91h0c-4.48,0-8.78-1.76-11.95-4.9-41.52-41.11-77.04-75.14-91.22-75.14h0c-4.84,0-11.45,5.66-21.97,16.1l-97.33,96.42c-10.24,10.16-22,22.67-22,29.14s11.77,18.98,22.01,29.16l45.88,45.46c52.66,52.06,100.16,24.41,143.64-13.22,3.12-2.71,5.86-5.07,8.26-6.97l122.44-117.7c6.69-6.43,17.37-6.28,23.88.33,6.5,6.61,6.35,17.18-.33,23.61l-123.05,118.29c-.44.43-.91.83-1.39,1.2-1.82,1.4-4.48,3.7-7.55,6.36-15.27,13.22-40.83,35.34-73.53,45.21-10.77,3.25-21.46,4.86-32,4.86Z"/>
  <path class="cls-1" d="M400.99,134.73c-18.23-20.18-43.32-31.29-70.65-31.29-7.73,0-20.66,2.48-52.29,21.83-8.58,5.25-19.24,5.25-27.83,0-31.63-19.35-44.56-21.83-52.29-21.83-27.33,0-52.42,11.11-70.65,31.29-17.02,18.84-26.39,43.56-26.39,69.59,0,29.2,16.61,51.35,36.68,75.23l2.64,3.13c13.71,16.24,18.33,21.72,18.33,39.13v12.33c0,42.04,30.4,77.56,72.28,84.47,4.9.8,9.91-.56,13.69-3.73,3.79-3.17,5.97-7.83,5.97-12.74v-83.93c0-7.39,6.08-13.45,13.55-13.5h.1c3.63,0,7.04,1.39,9.61,3.92,2.6,2.55,4.03,5.95,4.03,9.58v83.93c0,4.91,2.18,9.57,5.97,12.74,3.07,2.57,6.95,3.95,10.91,3.95.92,0,1.85-.08,2.78-.23,41.88-6.91,72.28-42.43,72.28-84.47v-12.33c0-17.41,4.62-22.89,18.33-39.13l2.63-3.12c20.07-23.89,36.68-46.03,36.68-75.23,0-26.04-9.37-50.76-26.39-69.6ZM364.72,258.22l-2.58,3.07c-15.2,18-26.17,31.01-26.17,60.52v12.33c0,18.42-9.56,34.79-24.4,44.11v-60.04c0-12.58-4.98-24.4-14.01-33.27-8.95-8.79-20.8-13.62-33.41-13.62h-.34c-25.97.18-47.09,21.21-47.09,46.89v60.04c-14.85-9.32-24.4-25.69-24.4-44.11v-12.33c0-29.51-10.98-42.51-26.17-60.52l-2.59-3.07c-16.37-19.48-28.89-35.82-28.89-53.9s6.32-34.64,17.81-47.35c11.73-12.99,27.88-20.14,45.35-20.14.3.02,7.31.62,30.03,14.07l2.95,3.36c17.28,19.66,41.55,30.17,66.46,30.17,12.3,0,24.76-2.56,36.61-7.86,8.5-3.8,12.28-13.68,8.44-22.09-3.84-8.4-13.84-12.14-22.34-8.34-6.34,2.83-12.97,4.4-19.57,4.77,22.73-13.46,29.74-14.06,29.94-14.08,17.58,0,33.73,7.15,45.46,20.14,11.48,12.71,17.81,29.53,17.81,47.35,0,18.08-12.52,34.42-28.89,53.9Z"/>
  <path class="cls-1" d="M264.14,522.28C118.49,522.28,0,405.13,0,261.14S118.49,0,264.14,0s264.14,117.15,264.14,261.14c0,64.67-23.8,126.11-67.23,174.06l14.62,56.81c1.43,5.56-.13,11.46-4.13,15.62-4,4.16-9.88,6-15.57,4.86l-78.14-15.58c-35.6,16.83-73.83,25.37-113.7,25.37ZM264.14,33.39c-127.03,0-230.37,102.17-230.37,227.75s103.34,227.75,230.37,227.75c36.52,0,71.44-8.2,103.78-24.36,3.38-1.69,7.24-2.21,10.96-1.47l57.45,11.45-10.27-39.89c-1.44-5.59.15-11.52,4.19-15.69,41.44-42.62,64.26-98.66,64.26-157.8,0-125.58-103.34-227.75-230.37-227.75Z"/>
</svg>