<svg width="57" height="56" viewBox="0 0 57 56" fill="none" xmlns="http://www.w3.org/2000/svg">
<path d="M33.1824 11.8853C33.1824 11.4321 32.8152 11.0649 32.3621 11.0649H13.8206C13.3675 11.0649 13.0002 11.4321 13.0002 11.8853C13.0002 12.3384 13.3675 12.7056 13.8206 12.7056H32.362C32.8152 12.7056 33.1824 12.3384 33.1824 11.8853Z" fill="white"/>
<path d="M42.0744 12.7056C42.5274 12.7056 42.8947 12.3384 42.8947 11.8853C42.8947 11.4321 42.5274 11.0649 42.0744 11.0649H37.6597C37.2066 11.0649 36.8394 11.4321 36.8394 11.8853C36.8394 12.3384 37.2066 12.7056 37.6597 12.7056H42.0744Z" fill="white"/>
<path d="M28.7678 18.9487C28.7678 18.4956 28.4005 18.1284 27.9475 18.1284H19.1182C18.6651 18.1284 18.2979 18.4956 18.2979 18.9487C18.2979 19.4019 18.6651 19.769 19.1182 19.769H27.9475C28.4005 19.769 28.7678 19.4019 28.7678 18.9487Z" fill="white"/>
<path d="M37.5969 18.9487C37.5969 18.4956 37.2296 18.1284 36.7766 18.1284H33.2449C32.7918 18.1284 32.4246 18.4956 32.4246 18.9487C32.4246 19.4019 32.7918 19.769 33.2449 19.769H36.7766C37.2297 19.769 37.5969 19.4019 37.5969 18.9487Z" fill="white"/>
<path d="M43.8854 32.0467C44.164 32.1827 44.4953 32.1502 44.742 31.9624C44.9887 31.7747 45.1085 31.4641 45.0518 31.1594L44.653 29.0177L46.1863 27.4844C46.4071 27.2634 46.4834 26.9364 46.3831 26.6408C46.2828 26.345 46.0232 26.1319 45.7136 26.091L43.5549 25.806L42.5644 23.8721C42.424 23.5982 42.1422 23.4258 41.8343 23.4258H41.834C41.526 23.4259 41.244 23.5985 41.1039 23.8727L40.1156 25.8061L37.9574 26.091C37.6477 26.1319 37.3883 26.345 37.2879 26.6408C37.1876 26.9364 37.2638 27.2634 37.4847 27.4844L39.018 29.0177L38.6192 31.1594C38.5624 31.4641 38.6823 31.7748 38.9291 31.9625C39.0746 32.0732 39.2495 32.1298 39.4257 32.1298C39.5483 32.1298 39.6716 32.1024 39.7858 32.0465L41.8344 31.0453L43.8854 32.0467Z" fill="white"/>
<path d="M17.9376 26.0913L15.7794 25.8064L14.7911 23.8729C14.6509 23.5987 14.369 23.4261 14.061 23.426H14.0607C13.7529 23.426 13.4709 23.5984 13.3306 23.8724L12.3401 25.8062L10.1815 26.0913C9.87185 26.1322 9.61241 26.3452 9.51201 26.641C9.41171 26.9366 9.48794 27.2637 9.70877 27.4846L11.2421 29.0179L10.8433 31.1596C10.7866 31.4643 10.9064 31.7749 11.1531 31.9626C11.2986 32.0734 11.4736 32.1301 11.6498 32.1301C11.7723 32.1301 11.8955 32.1026 12.0097 32.0469L14.0606 31.0455L16.1092 32.0467C16.3876 32.1829 16.7192 32.1504 16.9659 31.9626C17.2127 31.7749 17.3325 31.4642 17.2758 31.1595L16.877 29.0178L18.4103 27.4845C18.6311 27.2636 18.7074 26.9365 18.6071 26.6409C18.5067 26.3452 18.2472 26.1322 17.9376 26.0913Z" fill="white"/>
<path d="M49.4379 8.68908C46.3578 5.63183 41.1846 4.28608 31.5821 4.04392C31.5751 4.04381 31.5681 4.0437 31.5611 4.0437C31.1177 4.0437 30.7526 4.39742 30.7415 4.84334C30.7301 5.29637 31.0879 5.67273 31.5409 5.68422C40.6805 5.91456 45.5307 7.1225 48.2823 9.85359C51.2425 12.7917 51.8491 17.9016 51.8491 24.67C51.8491 32 51.1598 37.119 47.7296 39.9866C46.0822 41.3596 43.8176 42.2739 40.6029 42.8638C40.1573 42.9457 39.8624 43.3731 39.9442 43.8187C40.0168 44.2143 40.3618 44.491 40.7501 44.491C40.7992 44.491 40.849 44.4866 40.8991 44.4775C44.4026 43.8344 46.9069 42.8078 48.7809 41.2461C52.702 37.9681 53.4897 32.4732 53.4897 24.6699C53.4896 17.2867 52.8118 12.0379 49.4379 8.68908Z" fill="white"/>
<path d="M27.5059 5.64264C27.5065 5.64264 27.5071 5.64264 27.5077 5.64264L27.9474 5.64209L28.3213 5.64253C28.3219 5.64253 28.3227 5.64253 28.3235 5.64253C28.7755 5.64253 29.1426 5.27667 29.1438 4.8244C29.145 4.37126 28.7787 4.00311 28.3255 4.0019L27.9475 4.00146L27.5042 4.00201C27.0512 4.003 26.6847 4.37104 26.6858 4.82418C26.6867 5.27656 27.0537 5.64264 27.5059 5.64264Z" fill="white"/>
<path d="M15.2941 42.8638C12.0782 42.2739 9.81289 41.3598 8.16625 39.9875C4.73504 37.1191 4.04576 31.9999 4.04576 24.67C4.04576 17.9183 4.6482 12.8188 7.58864 9.8775C10.3226 7.14258 15.1351 5.92884 24.1995 5.68811C24.6525 5.67619 25.0098 5.29917 24.9977 4.84636C24.9857 4.39355 24.6096 4.03622 24.1559 4.04814C14.6268 4.30113 9.49078 5.65399 6.42828 8.71747C3.07812 12.0689 2.40503 17.306 2.40503 24.67C2.40503 32.4734 3.19275 37.9683 7.11483 41.2471C8.9882 42.8082 11.4931 43.8348 14.9981 44.4776C15.0482 44.4868 15.098 44.4912 15.147 44.4912C15.5353 44.4912 15.8805 44.2144 15.953 43.8188C16.0347 43.3731 15.7397 42.9456 15.2941 42.8638Z" fill="white"/>
<path d="M30.9941 44.2795C32.0609 43.3998 32.7421 42.0688 32.7421 40.5818C32.7421 37.938 30.5912 35.7871 27.9474 35.7871C25.3049 35.7871 23.1552 37.938 23.1552 40.5818C23.1552 42.0686 23.8358 43.3995 24.9019 44.2792C22.4892 45.1728 20.5329 47.1046 19.6591 49.6303C19.6588 49.6312 19.6584 49.6322 19.6581 49.633C19.3797 50.4473 19.5068 51.3155 20.0068 52.015C20.5825 52.8202 21.5952 53.3205 22.6498 53.3205H33.245C34.2996 53.3205 35.3123 52.8203 35.888 52.015C36.3881 51.3154 36.5152 50.4473 36.2359 49.6302C35.3622 47.1048 33.4063 45.1732 30.9941 44.2795ZM24.7958 40.5817C24.7958 38.8426 26.2097 37.4276 27.9474 37.4276C29.6866 37.4276 31.1015 38.8426 31.1015 40.5817C31.1015 42.3195 29.6866 43.7333 27.9474 43.7333C26.2097 43.7334 24.7958 42.3195 24.7958 40.5817ZM34.5533 51.0608C34.2803 51.4425 33.7791 51.6797 33.245 51.6797H22.6498C22.1158 51.6797 21.6145 51.4425 21.3415 51.0608C21.1453 50.7863 21.1011 50.4849 21.21 50.1651C22.2022 47.2995 24.9095 45.374 27.9474 45.374C30.9859 45.374 33.6937 47.2999 34.6844 50.1638C34.794 50.484 34.7499 50.7859 34.5533 51.0608Z" fill="white"/>
<path d="M32.4963 26.6412C32.396 26.3454 32.1364 26.1322 31.8268 26.0913L29.6682 25.8062L28.6777 23.8724C28.5374 23.5984 28.2554 23.426 27.9476 23.426C27.6398 23.426 27.3579 23.5984 27.2175 23.8724L26.227 25.8062L24.0684 26.0913C23.7587 26.1322 23.4991 26.3454 23.3989 26.6412C23.2986 26.9371 23.3751 27.2641 23.5961 27.4849L25.1314 29.0183L24.7326 31.1596C24.6759 31.4643 24.7957 31.7751 25.0425 31.9627C25.2892 32.1503 25.6208 32.1829 25.8992 32.0469L27.9477 31.0457L29.9962 32.0469C30.1105 32.1027 30.2337 32.1302 30.3563 32.1302C30.5325 32.1302 30.7074 32.0734 30.8529 31.9629C31.0997 31.7752 31.2196 31.4644 31.1628 31.1597L30.764 29.0184L32.2993 27.485C32.5201 27.2641 32.5966 26.9371 32.4963 26.6412Z" fill="white"/>
</svg>
