<?xml version="1.0" encoding="UTF-8"?>
<svg id="Layer_1" data-name="Layer 1" xmlns="http://www.w3.org/2000/svg" xmlns:xlink="http://www.w3.org/1999/xlink" viewBox="0 0 1007.1 1041.83">
  <defs>
    <style>
      .cls-1 {
        fill: none;
      }

      .cls-2 {
        fill: #fff;
      }

      .cls-3 {
        clip-path: url(#clippath);
      }
    </style>
    <clipPath id="clippath">
      <rect class="cls-1" width="1007.1" height="1041.83"/>
    </clipPath>
  </defs>
  <g class="cls-3">
    <g>
      <path class="cls-2" d="M510.16,193.84c-2.58,0-5.21-.53-7.74-1.65-9.99-4.42-14.61-16.38-10.34-26.71l12.1-29.22c4.28-10.33,15.83-15.12,25.82-10.69,9.99,4.42,14.62,16.38,10.34,26.71l-12.1,29.22c-3.19,7.72-10.46,12.34-18.09,12.34Z"/>
      <path class="cls-2" d="M409.48,192.6c-7.8,0-15.19-4.84-18.27-12.79l-11.42-29.51c-4.04-10.43.87-22.28,10.95-26.45,10.08-4.18,21.53.89,25.57,11.33l11.42,29.51c4.04,10.43-.86,22.28-10.95,26.45-2.4.99-4.87,1.46-7.3,1.46Z"/>
      <path class="cls-2" d="M580.52,268.37c-7.8,0-15.19-4.83-18.27-12.79-4.04-10.43.86-22.28,10.95-26.45l28.53-11.81c10.08-4.18,21.53.9,25.57,11.33,4.04,10.43-.86,22.28-10.95,26.45l-28.53,11.81c-2.4.99-4.87,1.46-7.3,1.46Z"/>
      <path class="cls-2" d="M987.43,506.55h-94.42c.34-11.72,3.1-24.22,6.83-41.15,1.27-5.75,2.62-11.87,3.99-18.48,10.15-49,20.64-99.67-2.46-144.91-19.02-37.26-49.87-65.61-86.85-79.83-39.43-15.16-81.61-12.33-118.77,7.97-9.37,5.12-25.28,18-55.1,70.56-9.75,17.18-27.75,27-46.96,25.66-58.77-4.15-78.02,2.18-87.4,7.3-.43.23-.85.47-1.28.71-6.11-12.27-13.65-23.62-22.55-33.93-28.02-32.46-66.59-50.33-108.62-50.33-10.59,0-30.48,3.71-80.57,35.77-16.38,10.48-36.73,10.48-53.1,0-50.1-32.06-69.98-35.77-80.58-35.77-42.02,0-80.59,17.87-108.62,50.33-26.29,30.44-40.76,70.41-40.76,112.55,0,35.57,15.55,65.63,35.47,93.55h-26.01c-10.86,0-19.67,9.11-19.67,20.35v372.2c0,11.24,8.81,20.35,19.67,20.35h394.96c10.86,0,19.67-9.11,19.67-20.35s-8.81-20.35-19.67-20.35H39.34v-331.5h38.12c2.73,3.33,5.35,6.48,7.86,9.5,24.52,29.49,34.67,41.7,34.67,80.71v20.88c0,67.29,46.5,124.15,110.57,135.2,5.7.98,11.54-.68,15.95-4.54,4.41-3.87,6.96-9.54,6.96-15.52v-168.48c0-7.74,5.77-14.2,12.86-14.41,3.64-.09,7.04,1.27,9.62,3.88,2.59,2.6,4.01,6.09,4.01,9.82v169.19c0,5.98,2.54,11.66,6.96,15.52,3.58,3.14,8.09,4.82,12.71,4.82,1.08,0,2.16-.09,3.24-.28,64.07-11.05,110.57-67.91,110.57-135.2v-20.88c0-39.01,10.15-51.22,34.67-80.71.67-.8,1.34-1.62,2.03-2.44,23.8,42.1,68.57,61.03,111.92,79.35,6.05,2.56,11.7,4.86,17.01,7.02,34.99,14.23,49.48,20.12,67.09,54.62l9.43,18.46c23.54,46.11,68.94,73.18,116.87,73.18,13.92,0,28.07-2.29,41.94-7.05,5.49-1.89,9.89-6.17,12.05-11.72,2.16-5.55,1.84-11.8-.86-17.09l-76.06-148.98c-3.5-6.85-1.31-15.35,4.87-18.95,3.15-1.84,6.8-2.27,10.25-1.22,3.46,1.05,6.3,3.45,7.98,6.75l76.38,149.6c2.7,5.29,7.52,9.08,13.16,10.37,5.65,1.28,11.56-.06,16.16-3.69,51.66-40.73,67.11-113.47,36.74-172.97l-9.43-18.46c-1.1-2.16-2.12-4.25-3.06-6.27h65.2v331.5h-375.29c-10.86,0-19.67,9.11-19.67,20.35s8.81,20.35,19.67,20.35h394.96c10.86,0,19.67-9.11,19.67-20.35v-372.19c0-11.24-8.81-20.35-19.67-20.35ZM418.28,530.21c-26.6,32-44.18,53.14-44.18,107.24v20.88c0,38.83-22.02,72.72-54.8,87.92v-141.98c0-14.81-5.65-28.66-15.92-38.99-10.26-10.33-23.81-15.77-38.13-15.39-28.19.8-51.12,25.51-51.12,55.09v141.27c-32.78-15.2-54.8-49.09-54.8-87.92v-20.88c0-54.1-17.57-75.24-44.18-107.24-3.61-4.34-7.45-8.96-11.53-14-32.66-40.36-54.07-69.36-54.07-103.2s10.92-62.47,30.76-85.44c20.46-23.7,48.61-36.74,79.28-36.74,1.31,0,13.5.75,53.39,25.58l5.58,6.64c19.24,22.9,44.56,38.44,73.21,44.93,9.68,2.19,19.43,3.28,29.13,3.28,19.01,0,37.83-4.19,55.53-12.46,9.9-4.63,14.3-16.68,9.83-26.92-4.47-10.24-16.13-14.79-26.02-10.17-19.79,9.25-41.14,11.17-61.04,6.43,5.07-2.05,10.02-4.6,14.78-7.64,45.08-28.85,58.5-29.68,59.88-29.68,30.66,0,58.82,13.05,79.28,36.74,8.03,9.3,14.59,19.76,19.6,31.19-19.31,19.3-33.03,43.89-39.74,71.9-6.37,26.57-6.11,54.37.49,81.03-1.21,1.5-2.43,3.01-3.66,4.53-4.07,5.03-7.92,9.66-11.53,14ZM871.5,695.2l-64.1-125.54c-6.69-13.1-17.94-22.61-31.68-26.79-13.74-4.18-28.18-2.46-40.66,4.82-24.56,14.33-33.69,47.26-20.34,73.41l63.78,124.92c-35.85,2.4-70.62-16.93-88.15-51.27l-9.43-18.46c-24.43-47.84-49.51-58.04-87.48-73.48-5.15-2.1-10.64-4.33-16.52-6.81-47.11-19.92-79.13-35.21-94.41-65.13-14.5-28.4-18.54-60.51-11.37-90.41,7.39-30.84,26.4-55.98,53.51-70.79.93-.51,8.19-3.93,34.7-3.93,6.71,0,14.66.22,24.06.76l7.93,3.18c15.78,6.32,32.24,9.5,48.77,9.5,12.12,0,24.29-1.71,36.24-5.14,28.27-8.1,52.72-25.06,70.72-49.01,6.67-8.88,5.11-21.66-3.46-28.55-8.58-6.9-20.94-5.29-27.6,3.58-13.32,17.74-31.34,29.75-51.06,35.18,3.56-4.26,6.78-8.91,9.61-13.9,26.84-47.29,38.32-54.51,39.55-55.17,27.12-14.81,57.9-16.88,86.69-5.81,27.91,10.73,51.27,32.29,65.77,60.69,15.28,29.93,9.44,65.91-1.22,117.38-1.33,6.42-2.64,12.37-3.87,17.95-9.08,41.15-15.07,68.34,9.35,116.17l9.43,18.46c17.53,34.34,13.36,74.94-8.76,104.22Z"/>
      <path class="cls-2" d="M503.9,919.45c-8.32,0-15.9-5.65-18.59-13.76-2.71-8.14,0-17.51,6.62-22.74,6.37-5.02,15.2-5.52,22.08-1.3,7.12,4.37,10.83,13.21,9.14,21.58-1.88,9.32-10.04,16.22-19.25,16.22Z"/>
    </g>
  </g>
</svg>