<?xml version="1.0" encoding="UTF-8"?>
<svg id="Layer_1" data-name="Layer 1" xmlns="http://www.w3.org/2000/svg" viewBox="0 0 1010.37 571.09">
  <defs>
    <style>
      .cls-1 {
        fill: #fff;
      }
    </style>
  </defs>
  <path class="cls-1" d="M646.28,429.65l101.25-30.09c-8.48-51.76,27.23-74.2,23.56-9.33l85.39-34.44c14.69-12.14-10.81-46.9-2.53-53.44l91.15-10.65-39.43-11.41c-4.85-3.39-4.97-13.29-.13-16.62,6.37-4.38,77.71,9.55,88.93,13.2,16.04,5.21,20.36,8.4,9.73,23.07-25.99,35.89-73.91,88.1-104.97,121.6-97.39,105.04-210.68,157.8-356.35,146-11.36-.92-25.77-6.48-36.34-6.61-21.09-.27-52.05,9.52-75.22,10.07-127.43,3.05-238.12-61.2-322.03-151.14-30.96-33.19-77.29-84.12-103.37-119.92-9.2-12.63-8.31-16.85,7.14-22.38,45.42-16.29,111.94-21.62,162.84-37.49,89.09-27.77,126.81-81.97,229.86-50.99,34.51,10.38,50,31.22,76.34,41.89,44.95,18.2,67.61-20.53,105.14-36.05,13.47-5.57,70.32-24.95,75.11-6.06.62,18.46-22.28,12.28-33.35,14.98-42.35,10.33-56.25,30.36-88.86,45.79-63.75,30.15-99.13-34.64-162.34-45.73-77.98-13.68-114.03,29.97-182.2,52.59-43.57,14.46-89.21,23.63-133.91,33.61-.15,15.23,262.39,10.3,284.07,11.53,56.68,3.19,114.1,23.1,170.76,19.63,45.76-2.8,91.63-17.09,138.01-19.63,17.89-.98,59.76-2.89,75.49-.03,11.46,2.09,11.19,16.47,2.79,19.2l-86.53,3.78v105.09ZM117.09,321.75l-45.52-7c8.3,6.38,32.8,23.63,41.11,26.19,7.97,2.46,5.72-17.05,4.4-19.19ZM928.7,314.74l-48.9,6.88-.34,19.35c3.8,4.09,45.12-19.06,49.24-26.23ZM229.21,324.56l-88.68-3.3,2.05,36.48,86.63,35.79v-68.96ZM350.71,324.56c-29.22.45-61.29-6.88-90.48-3.45-4.78.56-8.44.41-11.33,5.09v77.18l101.81,29.56v-108.37ZM488.64,340.98l-114.94-13.14v111.66c38.35,3.53,76.15,12.5,114.94,9.85v-108.37ZM626.57,327.85l-116.79,16.21,1.66,103.84c7,4.8,102.72-7.69,111.96-13.41,1.76-1.93,3.17-7.48,3.17-9.76v-96.88ZM78.14,347.59c87.23,122.89,216.2,210.27,372.86,200.42,13.01-.82,26.67-5.73,39.33-6.64,38.99-2.8,79.25,9.35,121.59,6.65,141.03-8.99,250.51-102.96,329.94-211.93l-144.57,68.89c-220.35,87.7-402.01,89.7-619.58-7.59-33.82-15.12-65.72-34.81-99.58-49.81Z"/>
  <path class="cls-1" d="M787.88,337.27c-1.2-.75-8.72-20.23-12.14-25.58-17.83-27.9-32.84-45.83-60.75-64.04-11.08-7.22-36.38-12.7-35.8-26.68.37-8.76,20.15-14.05,27.21-18.56,23.9-15.26,46.89-34.87,62.75-58.76,8.63-12.99,15.98-48.94,34.93-31.06,5.27,4.97,12.7,24.96,18.78,33.75,12.93,18.7,28.93,34.68,47.62,47.62,11.05,7.64,54.54,22.13,33.23,38.29-14.54,11.04-34.28,17.45-50.57,31.51-6.71,5.79-15.53,14.74-21.03,21.66-9.4,11.83-29.02,61.34-44.23,51.84ZM872.85,219.54c-33.47-15.54-58.16-44.87-77.15-75.53-11.3,12.86-20.75,30.55-32.71,42.76-10.95,11.17-31.23,21.57-41,31.25-2.74,2.72-4.63,3.03-3.45,7.97,35.19,14.73,55.94,47.28,78.76,75.58,15.16-30.71,43-59.79,73.54-75.31l2.01-6.72Z"/>
  <path class="cls-1" d="M941.32,0c8.02,19.36,20.21,37.24,36.93,50.06,9.09,6.98,34.28,14.98,31.97,26.08-1.16,5.6-36.07,24.17-43.72,31.7-9.34,9.19-24,42.78-32.87,42.78-15.89-8.76-18.73-28.86-32.69-42.97-9.41-9.51-58.55-30.69-37.1-43.52,28.08-16.8,51.14-30.02,62.11-64.15h15.38ZM974.68,71.75l-41.05-36.1c-2.75,0-30.23,37.05-41.05,36.1l41.05,42.57,41.05-42.57Z"/>
</svg>