<?xml version="1.0" encoding="UTF-8"?>
<svg id="Layer_1" data-name="Layer 1" xmlns="http://www.w3.org/2000/svg" viewBox="0 0 829.65 1000.08">
  <defs>
    <style>
      .cls-1 {
        fill: #fff;
      }
    </style>
  </defs>
  <path class="cls-1" d="M238.11,51.28c39.5-1.03,61.82,10.56,97.18,16.76,41.87,7.34,65.74-13.14,103.01-15.19,31.93-1.76,16.35,37.94,14.59,56.43-15.27,159.9,95.78,224.17,234.64,253.64,10.46,5.38,10.66,13.14,8.96,23.83-8.47,53.38-53.51,112.22-73.3,160.93-12.94,31.85-7.51,78.53-9.59,113.51-4.61,77.88-19.89,273.66-82.39,324.58-22.21,18.1-48.93,17.86-73.46,4.09-49.61-27.85-65.92-123.6-68.48-175.7-1.69-34.48,6.29-99.92-3.79-129.23-14.42-41.91-59.82-26.85-63.68,17.89-7.26,84.2,12.12,172.6-34.82,251.07-23.34,39.01-69.27,64.44-109.04,29.98-67.87-58.8-77.99-281.25-82.4-368.26-1.73-34.1,3.3-45.9-12.78-78.55C51.31,473.17,13.26,412.39,2.63,339.3-18.44,194.47,89.56,55.17,238.11,51.28ZM421.09,90.4c-20.83,6.33-44.45,14.19-66.5,14.05-29.65-.18-56.56-15.11-85.56-17.77C117.62,72.79,6.47,208.56,40.63,354.88c8.92,38.19,27.84,84.19,45.36,119.41,15.17,30.49,38.88,59.12,42.83,94.14,3.28,29.05.74,63.24,2.45,92.85,3.98,68.9,11.08,141.63,27.61,208.64,8.07,32.73,31.8,124.49,81.67,87.14,59.6-44.64,42.36-193.12,47.51-258.22,7.56-95.48,126.11-96.48,134.99.1,7.07,76.86-11.94,159.98,27.07,233,19.46,36.43,51.26,49.14,75.77,8.79,47.58-78.35,49.61-247.49,53.89-339.19,3.26-69.76,24.03-83.42,51.4-141.16,10.38-21.9,19.14-44.64,27.77-67.28-.32-3.2-33.06-10.39-38.94-12.32-70.85-23.19-146.07-64.18-179.42-134.2-23.01-48.31-26.29-103.74-19.52-156.2Z"/>
  <path class="cls-1" d="M511.83,1.47c14.86-3.36,54.13-.28,70.14,2.45,50.38,8.61,97.33,35.64,132.14,72.43L804.21,2.13c18.49-6.97,33.26,10.87,20.86,26.81l-87.93,74.33c36.09,51.79,52.93,115.39,44.91,178.45-1.65,12.95-6.39,38.53-11.52,50.02-9.41,21.04-36.65,8.84-54.14,4.27-144.62-37.75-240.15-124.74-223.82-284.33,1.45-14.17,2.98-46.54,19.26-50.22ZM625.53,147.97c3.09.53,4.59-.29,7.05-1.89,10.87-7.1,41.19-33.12,50.55-42.73,1.52-1.56,4.23-3.15,3.78-5.73-21.61-22.97-49.89-41.07-79.69-51.44-9.74-3.39-35.11-11.37-44.2-11.37h-34.73c-5.27,43.34-6.17,85.81,8.44,127.55,29.59,84.54,124.41,126.43,205.89,144.45,14.74-56.03,6.52-120.02-24.2-169.37-1.77-2.85-6.55-11.87-10.27-11.18l-50.86,43.55h42.67c11.09,0,18.57,29.49-2.44,33.28-15.1,2.72-72.81,2.42-88.89.52-10.95-1.3-15.62-8.29-16.82-18.91-1.67-14.82-2.24-71.59.45-84.92,4.66-23.06,33.28-14.38,33.28-4.42v52.61Z"/>
  <path class="cls-1" d="M255.82,149.37c-7.36,6.23-19.77,3.33-27.97,4.8-84.07,15.05-138.67,89.76-123.73,174.94,2.91,16.58,29.28,67.32-5.45,65.19-15.73-.96-23.2-37.62-26.25-51.34-18.36-82.73,20.8-170.16,97.89-206.64,18.35-8.68,61.55-21.3,80.72-15.72,10.71,3.12,12.78,22.02,4.8,28.78Z"/>
</svg>