<?xml version="1.0" encoding="UTF-8"?>
<svg id="Layer_1" data-name="Layer 1" xmlns="http://www.w3.org/2000/svg" viewBox="0 0 776.27 983.57">
  <defs>
    <style>
      .cls-1 {
        fill: #fff;
      }
    </style>
  </defs>
  <path class="cls-1" d="M620.35,0c5.13,3.39,7.03,7.46,9.06,13.02,12,32.8,14.92,73.75,27.39,107.06l112.79,29.29c10.19,5.17,8.53,23.88-3.7,26.01l-97.55,24.41c14.72,42.64,8.67,80.48-3.32,122.46-21.75,76.13-60.09,152.29-60.05,231.89-5.46,148.97-75.27,274.45-135.92,405.7-19.76,30.6-62.3,31.73-82.61,1.22-16.52-24.81-1.97-50.78,2.92-77.11,10.39-55.96,33-192.74-14.9-233.6-20.61-17.58-60.52-14.58-78.53,5.66-39.78,44.69-21.34,164.84-10.99,220.3,5.83,31.24,25.68,67.6-1.54,93.71-23.95,22.96-61.54,15.48-77.4-12.8-56.41-122.17-115.01-228.15-130.65-364.87-3.3-28.86-1.28-64.59-6.46-91.5C52.06,413.38-14.12,311.23,2.72,220.51,19.82,128.37,126.61,52.92,218.18,86.4c52.19,19.08,58.29,78.48,113.26,82.6,63.98,4.79,68.39-52.2,114.84-77.12,41.47-22.25,93.05-13.35,133.74,6.08,8.28-26.18,11.16-60.58,21.06-85.56,2.39-6.04,4.25-8.64,9.68-12.4h9.6ZM649.15,269.88c.86-8.88-.63-18.83,0-27.85-5.64-.92-3.11,1.34-4.07,4.48-5.66,18.43-9.84,54.09-17.49,69.03-5.82,11.36-21.33,9.91-25.94-1.98-4.32-11.13-18.99-67.81-19.6-78.53-.68-11.95,10.76-19.8,20.93-13.08,8.67,5.72,7.67,15.29,10.7,23.9.65,1.85.23,4.41,2.81,3.85l17.83-68.61,68.57-19.72c-13.54-6.11-59.37-10.48-68.24-19.14-7.1-6.93-15.6-67.28-19.1-67.35-8.42,14.79-9.8,57.07-21,67.36-10.83,9.95-51.22,12.53-66.34,19.12l39.26,13.49c6.92,8.22.83,22.28-9.5,23.15-28.5-7.74-64.43-11.77-91.64-21.83-15.84-5.86-18.62-18.32-3.44-27.34l101.76-25.93-23.45-10.12c-40.54-10.58-78.28-8.52-107.03,24.6-28.9,33.31-43.35,59.9-95.3,60.26-84.8.6-84.42-83.97-151.49-90.06-87.3-7.93-162.64,66.18-160.36,152.78.71,26.94,12.81,57.19,20.69,83.01,15.06,49.31,31.84,98.85,48.56,147.35,30.78,12.06,63.33,20.12,95.93,25.97l-29.71-80.42c.86-17.15,17.99-21.92,26.95-6.12,6.82,12.02,33.7,92.4,38.54,93.98,46.4,5.11,93.05,10,139.88,7.91,19.75-.88,58.6-3.1,76.76-7.72,2.89-.74,4.31-1.2,5.29-4.31l37.08-93.52c7.71-10.06,22.41-6.63,24.96,5.64,2.48,11.95-26.35,66.23-29.87,81.68-.35,3.25-.15,3.08,2.89,2.9,10.01-.6,24.32-9.04,31.48,3.08,8.76,14.82-6.07,19.91-17.04,22.85-74.09,19.86-176.32,20.92-252.24,12.22-50.63-5.8-100.32-18.09-149.02-32.4,2.93,55.78,9.71,111.49,23.57,165.6,22.58,88.16,73.97,169.11,107.82,253.24,9.8,20.15,36.63,17.54,40.48-4.89-25.48-83.36-71.06-360.28,91.52-323.11,87.83,20.08,72.77,170.54,62.65,236.33-3.94,25.58-13.31,53.43-16.46,77.64-3.55,27.35,22.83,37.79,37.57,16.48,68.69-142.35,139.55-280.93,133.25-444.86,14.03-70.01,63.89-160.3,70.58-229.04Z"/>
</svg>