<?xml version="1.0" encoding="UTF-8"?>
<svg id="Layer_1" data-name="Layer 1" xmlns="http://www.w3.org/2000/svg" viewBox="0 0 791.43 975.32">
  <defs>
    <style>
      .cls-1 {
        fill: #fff;
      }
    </style>
  </defs>
  <path class="cls-1" d="M536.43,403.98c54.86.02,34.89,73.99,15.58,102.86-9.58,14.31-21.37,22.82-35.03,32.78-.5,17.88-1.95,35.53-6.03,52.98-1.31,5.61-5.81,23.55-10.22,26.19-5.77,3.46-14-.03-14.48-7.05-.35-5.05,6.74-23.52,8.16-30.66,3.24-16.3,3.7-32.78,3.4-49.35,1.39-7.94,10.24-9.06,15.92-12.95,15.76-10.77,27.04-25.07,33.32-43.27,4.08-11.83,13.28-48.9-4-52.39-14.92-3.02-13.27,8.21-20.38,10.46-14.08,4.46-12.51-13.81-14.45-22.1-18.28-78.03-80.95-75.34-131.85-120.53-13.01-11.55-23.87-25.73-31.44-41.4l-27.09,25.63c-71.98,54.34-159.02,54.79-225.93,118.12-12.94,12.25-23.25,26.94-35.47,39.87-11.52,4.92-11.36-9.45-21.65-10.4-24.88-2.29-14.77,38.92-10,52.74,6.13,17.76,17.75,32.9,33.33,43.27,5.68,3.78,13.68,4.53,15.63,12,2.09,8.03,0,20.69.61,29.53,5.96,86.95,82.29,165.14,154.05,206.33,71.45,41.01,128.85-1.48,182.47-49.34,5.79-5.17,18.01-20.29,23.37-23.08,10.62-5.53,18.67,4.37,11.77,14.28-9.96,14.32-41.74,39.26-56.61,50.12-74.33,54.23-118.76,60.86-196.68,7.29-75.41-51.84-139.28-130.37-137.42-226.72-25.06-14.38-42.73-37.31-50.35-65.17-8.25-30.17-10.85-69.4,30.46-70.03-24.53-88.62-4.15-206.53,66.54-269.35,17.83-15.84,38.59-28.29,59.17-40.11.2-10.57.82-20.43,4.66-30.41C180.71,25.3,228.34,5.12,267.1.93c60.51-6.53,143.51,20.85,144.37,92.93,33.98,17.72,66.28,40.48,88.82,71.9,47.44,66.14,57.1,160.78,36.14,238.22ZM392.02,83.79c-8.19-48.04-68.56-66.59-111.18-65.35-39.77,1.16-94.53,21.24-101.04,65.97.42,1.48,2.77.41,3.87.1,7.7-2.12,16.02-6.26,24.07-8.58,51.13-14.78,101.68-16.08,153.17-1.82,4.4,1.22,29.88,10.76,31.12,9.68ZM521.34,387.66c19.18-85.3.41-189.84-70.43-246.6C323.22,38.76,111.81,75.26,58.38,237.98c-17.29,52.65-20.43,114.6-2.24,167.26,25.47-31.51,59.99-59.65,97.35-75.92,46.64-20.31,161.49-49.8,181.01-101.52,3.45-9.15,1.36-25.28,16.48-20.7,5.62,1.7,6.23,19.14,7.77,24.87,18.16,68.03,111.19,74.99,147.32,127.67l15.28,28.01Z"/>
  <path class="cls-1" d="M421.72,591.52l37.62,38.59c3.11.47,6.36-5.32,14.64-3.59,10.99,2.3,29.9,19.06,41.1,21.79,4.2,1.03,8.97-1.94,13.18-1.97,7.92-.05,17.69,3.82,23.83,8.8l180.23,180.23c.95.84,1.52.5,2.49,0,3.75-1.93,10.91-13.1,14.71-14.25,9.24-2.81,16.83,6.62,10.99,14.75l-46.99,48.28,39.77,39.54c1.56.57,2.4-.26,3.57-1.05,6.93-4.65,18.49-23.53,27-22.15,8.06,1.31,9.97,11.78,4.36,17.08l-55.96,55.79c-7.18,5.34-16.59-1.07-14.8-9.69,1.19-5.73,23.62-23.63,23.62-25.41l-40.96-40.72-47.53,46.37c-7.82,6.08-18.74-1.75-14.77-10.97,1.54-3.58,15.37-14.92,15.37-16.03l-180.82-180.78c-9.94-10.5-9.7-23.87-7.73-37.38l-22.12-42.06c-1.37-5.2.98-9.01,4.73-12.29l.02-1.82c-1.09-.1-2.43-.45-3.16-1.25-11.26-12.3-27.72-25.29-37.7-37.61-11.11-13.73,4.43-24.51,15.31-12.21ZM498.75,660.16l-27.01-13.48-8.12,9.04,14.41,27.01c5.01-6.48,15.08-13.03,19.48-19.42.73-1.06,1.75-1.24,1.24-3.14ZM627.65,785.27c1.78-1.96,13.08-14.11,12.91-15.08l-32.1-32.1c-3.8-.66-19.22,23.07-28.62,22.5-6.18-.37-10.12-8.32-7.6-13.78,1.96-4.26,22.43-19.86,21.86-23.08l-31.33-31.61c-1.35-.98-2.33-.64-3.72,0-7.02,3.24-22.98,32.46-33.23,16.92-6.96-10.55,16.5-23.83,21.88-31.95-9.08-10.14-17.1-16.31-30.03-7.45-4.01,2.75-31,29.9-32.98,33.57-3.81,7.06-3.31,14.85,2.11,21l179.59,178.32,53.27-53.24-18.12-17.17c-9.44,3.94-20.2,26.95-31.22,21.22-16.57-8.62,12.66-28.61,18.01-35.61l-32.25-31.89c-7.13-1.74-28.27,36.5-37.1,15.85-3.58-8.38,4.65-11.99,8.66-16.43Z"/>
  <path class="cls-1" d="M223.4,666.68c7.13-2.14,12.69,3.53,18.87,5.72,24.31,8.61,47.75,11.02,73.17,4.7,7.81-1.94,28.24-12.63,33.87-10.04,9.44,4.35,4.79,14.11-2.9,18.4-20.03,11.17-51.67,15.37-74.28,13.57-10.5-.83-43.08-9.26-50.82-15.73-5.72-4.77-4.46-14.68,2.09-16.64Z"/>
  <path class="cls-1" d="M393.03,399.34c20.44-1.39,35.61,4.27,53.44,13.62,6.72,3.52,15.2,8.26,9.88,17.04-6.36,10.5-23.41-3.11-31.71-6.51-30.86-12.63-47.85.03-77.21,1.83-16.38,1-17.32-13.97-6.54-17.85,10.3-3.71,40.39-7.33,52.14-8.13Z"/>
  <path class="cls-1" d="M161.93,399.29c13.84-1.78,53.07,3.57,66.87,7.82,4.49,1.38,8.08,2.3,8.74,7.67.99,7.96-3.31,10.61-10.65,10.66-14,.09-33.83-6.75-48.98-7.63-14.75-.85-21.06,1.76-34.11,7.3-6.98,2.96-21.01,13.86-27.36,6.46-10.6-12.35,16-22.27,24.46-25.68,5.85-2.35,14.94-5.82,21.02-6.6Z"/>
  <path class="cls-1" d="M144.33,464.48c6.09-1.22,11.38,3.55,16.93,5.16,8.78,2.54,17.5,4.15,26.7,3.39,7.9-.65,20.56-7.97,25.61.8,8.36,14.5-19.17,17.82-28.04,18.11-9.98.33-39.35-4.5-45.93-11.95-4.61-5.21-2.32-14.1,4.73-15.51Z"/>
  <path class="cls-1" d="M359.72,485.26c-5.35-5.28-2.32-15.21,5.41-15.96,4.51-.44,12.42,3.09,17.62,3.6,9.28.91,17.98-.43,26.85-2.98,7.13-2.05,15.38-9.08,21.99-3.18,16.96,15.14-26.58,24.27-35.35,24.98-7.66.62-31.1-1.11-36.53-6.46Z"/>
  <path class="cls-1" d="M266.12,572.49c4.05-.53,12.8,4.89,19.8,4.89,8.88,0,21.04-9.63,26.87-.61,8.74,13.53-17.98,19.45-26.87,19.45-5.43,0-19.62-3.19-23.88-6.36-7.43-5.54-4.82-16.2,4.08-17.36Z"/>
</svg>