<?xml version="1.0" encoding="UTF-8"?>
<svg id="Layer_1" data-name="Layer 1" xmlns="http://www.w3.org/2000/svg" viewBox="0 0 831.18 1016.59">
  <defs>
    <style>
      .cls-1 {
        fill: #fff;
      }
    </style>
  </defs>
  <path class="cls-1" d="M308.13,64.68c72.55,16.94,139.91,60.67,180.13,123.76,36.77,57.69,25.31,94.53,102.93,117.68,29.18,8.71,106.97,15.25,125.48,30.25,34.7,28.1,1.43,69.61-10.68,99.2,1.31,4.47,28.3,12.83,34.5,19.72,8.27,9.18,12.44,33.26,8.11,45.04-6.39,17.42-68.77,73.71-86.63,79.91-18.03,6.26-32.49-13.64-22.08-28.58,15.68-11.6,32.04-22.51,46.48-35.7,5.97-5.45,34.34-29.33,24.47-35.89-11.03-7.32-36.47-10.86-43.68-24.98-12.96-25.37,34.02-80.09,27.67-89.3-65.7-16.78-154.71-17.07-198.01-77.76-13.1-18.37-18.57-41.35-29.35-61.49-32.73-61.09-91.78-106.99-159.6-122.64-10.08,84.69-33.69,167.45-43,252.25-12.13,110.4,1.09,203.78,59.39,299.11,49.69,81.25,125.02,139.76,212.81,175.37,27-42.54,77.56-73.23,122.55-94.86,34.04-16.37,118.96-41.57,131.62-78.18,20.36-58.89-89.28-46.35-69.66-112.93,4.29-14.56,22.98-37.43,38.36-20.13,13.13,14.78-5.48,27.25-1.2,35.75,2.15,4.28,40.16,23.79,48.76,31.33,29.75,26.08,30.66,69.74,7.36,100.41-34.38,45.26-137.71,71.48-189.72,102.26-14.73,8.72-50.04,34.2-56.72,49.37-.72,1.62-1.81,2.73-.07,4.32,54.85,30.25,103.36,102.17,44.49,154.63-10.66,9.5-35.66,24.27-42.3,3.33-6.73-21.22,13.48-25.37,23.94-38.99,25.04-32.62-16.81-68.5-42.41-85.3-56.88-37.33-111.71-50.44-167.38-98.65-142.85-123.69-178.22-283.02-152.18-465.68,10.49-73.58,45.56-187.9,38.31-257.48-1.84-17.64-24.37-50.97.16-58.78,29.01-9.23,35.52,44.41,37.17,63.62Z"/>
  <path class="cls-1" d="M227.17,89.23c15.01-4.46,26.79,4.53,26.68,19.97-.1,15.44-6.68,45.37-9.77,61.81-33.18,176.47-164.59,379.18-41.86,550.04,52.21,72.68,157.79,143.3,242.88,170.23,16.77,5.31,57.45,6.68,55.21,28.91-2.91,28.85-41.14,13.83-58.37,8.86-134.48-38.79-302.04-165.62-323.84-312.04-24.49-164.45,59.26-300.19,89.56-454.29,3.3-16.8,4.6-50.3,9.91-63.63,1.23-3.1,6.54-8.94,9.6-9.85Z"/>
  <path class="cls-1" d="M132.08,253.52c28.31-5.79,24.85,32.9,21.61,49.87-12.02,62.87-71.28,112.14-96.43,171.77-16.88,40.01-18.82,79.13-20.72,122.03-7.3,16.17-31.62,12.88-35.37-3.84-3.48-15.51,1.63-57.5,4.5-74.61,5.7-33.98,19.4-65.85,36.57-95.37,20.71-35.59,69.47-87.38,74.71-126.44,1.86-13.83-4.4-39.41,15.13-43.41Z"/>
  <path class="cls-1" d="M404.63,234.09c15.47-3.02,27.69,14.74,19.76,28.56-2.99,5.21-22.74,17.02-28.94,22.96-14.94,14.3-29.56,36.75-40.94,54.23-4.69,7.2-12.25,25.6-17.42,30.17-13.08,11.56-34.31-1.25-31.01-17.9,1.8-9.11,19.43-36.97,25.49-46.02,12.38-18.48,51.57-67.8,73.06-71.99Z"/>
  <path class="cls-1" d="M388.49,432.02c-1.19-1-4-5.91-4.35-7.45-6.11-26.62,18.79-24.56,35.48-32.61,12.48-6.01,28.02-20.01,34.88-32.17,5.05-8.97,7.65-25.93,14.43-30.99,9.6-7.18,26.1-3.68,28.78,8.07,6.69,29.34-26.27,67.16-49.45,81.56-13.19,8.19-46.29,24.93-59.76,13.59Z"/>
</svg>