<?xml version="1.0" encoding="UTF-8"?>
<svg id="Layer_1" data-name="Layer 1" xmlns="http://www.w3.org/2000/svg" viewBox="0 0 853.44 1000.08">
  <defs>
    <style>
      .cls-1 {
        fill: #fff;
      }
    </style>
  </defs>
  <path class="cls-1" d="M338.54,670.74c-24.76,22.66-32.04,155.08-36.93,192.51-4.29,32.91-12.53,109.65-41.17,129.17-14.63,9.97-39.05,9.05-54.57,1.14-48.61-24.77-62.21-155.09-74.93-205.62C98.89,660.59,13.67,568.43,1.29,428.61c-13.73-154.97,83.44-261.02,242.48-224.45,25.41,5.84,45.46,18.16,69.08,25.11,67.34,19.8,116.27-28.86,186.32-32.18,180.25-8.54,220.54,155.88,183.29,301.53-27.79,108.67-92.82,190.89-119.11,299.72-11.9,49.28-24.82,167.98-70.46,194.07-21.8,12.46-49.44,10.11-65.81-9.65-33.78-40.78-36.55-192.02-47.7-250.89-2.54-13.42-15.67-84.16-40.84-61.13ZM187.55,223.31c-61.01-2.06-118.54,26.2-144.55,82.74C0,399.54,40.79,522.81,81.71,610.71c19.78,42.5,44.93,79.42,59.87,124.49,17.52,52.82,34.37,191.93,64.13,226.44,10.69,12.4,34.83,20.83,45.74,5.75,25.16-34.77,29.79-162.16,36.66-209.83,4.91-34.04,15.44-121.32,64.65-115.35,43.26,5.25,52.31,89.26,57.02,123.37,6.55,47.43,9.96,160.48,33.06,197.4,13.37,21.37,37.09,12.44,50.22-4.47,26.8-34.54,38.03-134.6,49.86-180.6,23.12-89.91,74.59-158.08,103.66-245.03,26.67-79.79,45.74-192.22-15.04-261.58-24.69-28.17-85-55.22-122.28-48.09-6.58,1.26-4.49,9.52-14,10.21-12.59.91-8.43-9.2-23.81-7.96-42.55,3.44-82.35,39.16-127.51,33.86,5.72,16.42,45.22,13,41.79,30.56-3.39,17.32-30.5,7.82-41.16,1.87-14.76-8.24-24.86-24-38.04-34.11-24.49-18.78-62.35-30.4-92.83-32.4-1.5,1.32,14.18,17.63-.48,24.55-14.94,7.05-24.95-14.47-25.66-26.48Z"/>
  <path class="cls-1" d="M845.94,96.97c8.87,2.45,10.67,21.63-2.06,24l-238.4.03c-11.06-1.12-26.28-8.12-34.07-16.03-7.9-8.03-9.84-19.17-16.43-27.66l-150.93-26.43c-1.12,15.03-1.87,32.08-4.26,46.85-4.05,25.07-10.74,41.74-39.83,41.33-3.11,13.93,8.57,62.87-11.16,64.1-22.17,1.39-9.63-50.14-12.87-64.1-21.32,1.49-33.48-11.82-37.57-31.57-2.86-13.82-9.95-67.51-8.36-79.47,1.39-10.46,10.94-21.87,20.77-25.32,9.42-3.3,58.68-3.28,69.76-1.43,19.06,3.2,20.05,20.77,29.49,24.62l147.05,27.17c7.95-18.71,21.64-34.3,42.55-38.07l247.92.23c10.08,2.96,6.62,23.86-5.73,23.53-74.98,5.21-158.45-6.53-232.43.03-25.67,2.28-38.96,29.94-21.01,49.23,1.45,1.56,14.2,8.97,15.08,8.97h81.16c-7.2-46.38,31.61-46.79,24.05,0h137.27ZM377.01,24.83c-8.42-2.36-44.23,0-56.11,0-3.17,0-7.29,5.45-6.67,8.9l10.06,75.88c8.42,8.18,46.03,10.26,49.6-3.73,2.99-11.72,8.48-57.99,8.33-70.06-.05-3.68-1.37-9.92-5.21-10.99Z"/>
  <path class="cls-1" d="M306.35,357.02c-5.69-5.73-2.6-20.16,6.66-21.6,1.85-.29,34.59,4.17,37.07,4.93,13.11,4.01,12.37,22.24-1.81,24.09-5.99.78-38.16-3.63-41.92-7.42Z"/>
  <path class="cls-1" d="M222.21,251.8c11.41-10.85,41.23,18.7,43.27,29,1.98,10-8.55,17.78-17.69,13.54-3.28-1.52-29.4-29.07-29.68-32.35-.16-1.88,2.81-8.97,4.1-10.19Z"/>
  <path class="cls-1" d="M449.47,291.77c24.08-2.28,11.49,59.88-13.88,53.34-18.12-11.11-1.02-20.87,1.67-29.58,2.39-7.75-1.1-22.5,12.21-23.76Z"/>
  <path class="cls-1" d="M401.61,336.01c11.35-1.23,21.59-2.74,20.68,12.48-.88,14.74-46.31,19.02-52.4,12.14-16.46-18.6,20.54-23.41,31.72-24.62Z"/>
  <path class="cls-1" d="M471.65,233.55c3.65-.57,10.01,2.45,11.58,5.69,6.15,12.65-15.14,29.32-18.14,41.99-5.66,6.6-18.02,5.22-20.55-3.35-3.19-10.84,15.97-42.59,27.11-44.34Z"/>
  <path class="cls-1" d="M259.18,301.79c16.89-5.08,15.6,8.22,22.61,16.66,5.9,7.11,28.52,18.07,8.71,28.79-18.22,9.86-50.89-39.57-31.32-45.45Z"/>
</svg>