<?xml version="1.0" encoding="UTF-8"?>
<svg id="Layer_1" data-name="Layer 1" xmlns="http://www.w3.org/2000/svg" viewBox="0 0 993.86 789.66">
  <defs>
    <style>
      .cls-1 {
        fill: #fff;
      }
    </style>
  </defs>
  <path class="cls-1" d="M0,67.97C9.76,30.36,31.87,3.23,72.72,0h848.36c42.33,3.35,67.59,34.18,72.79,74.69-6.1,60.87-4.36,125.94-11.75,186.28-1.41,11.53-6.69,23.06-7.74,32.99-1.63,15.45,3.48,32.96,3.96,48.44.84,26.64.06,54.07-1.09,80.55-50.29,40.35-131.47,48.95-193.48,36.32-5.77-1.17-17.35-7.11-21.64-6.68-4.82.48-29.83,13.66-39.68,16.39-48.52,13.45-100.66,14.19-149.91,5.46-25.39-4.5-49.68-11.26-73.7-20.41-3.99,24.59,34.43,17.36,43.07,37.44l145.62,281.25c4.02,7.44.33,11.55-4.31,16.93h-7.76l-6.24-6.36-144.73-280.22-9.15-6.38c-2.18,2.2,3.69,3.52,4.9,5.32,1.84,2.75,3.89,8.29,5.31,11.65,17.64,41.89,28.47,90.39,46.69,131.81,16.76,38.12,47.85,74.62,65.97,112.65,3,11.59-8.78,16.1-17.25,9.37-4.06-3.23-3.75-8.92-7.59-10.81.74,12.47,12.2,22.4-.02,32.97h-5.82l-7.42-5.19c-16.97-39.85-27.03-86.6-45.26-125.48-12.46-26.56-32.34-50.54-45.34-76.93l-3.96,21.5,73.87,170.57c3.23,7-.9,10.56-4.89,15.54h-7.76l-79.51-175.7c-20.59,7.41-41.63,13.24-63.43,16.34-54.96,7.82-123.54,2.95-175.35-18.19-11.78-4.8-21.87-7.64-23.32-21.31-1.51-14.25.96-46.4,1.95-62.06,1.58-24.9,6.01-49.81,7.73-74.7-59.75,20.29-130.91,15.52-188.2-10.74-9.6-4.4-27.72-11.42-29.28-23.11-2.48-18.56-.61-53.9.02-73.9,1-31.56,6.75-53.41-5.71-85.31L0,99.01v-31.04ZM962.72,238.68c2.13-55.9,9.87-111.63,9.52-167.59-3.43-23.07-18.67-43.65-41.98-49.22l-863.29-.47C24.87,30.57,20.08,64.87,21.27,102c1.28,39.89,7.25,82.05,9.77,122.16.46,7.39-.29,14.9.04,22.28l21-49.79c14.85-25.3,30.28-47.22,60.48-54.01,83.46-18.77,113.48,83.07,122.32,146.49,3.73-.68,3.2-4.05,3.96-6.7,2.86-10.01,3.96-21.83,6.69-32.12,16.63-62.68,58.22-157.33,138.82-138.73,73.89,17.06,101.99,118.29,112.57,183.35l21.29-80.53c17.84-48.72,56.87-111.79,116.93-105.16,78.21,8.63,112.78,113.56,121.86,179.89,5.08.4,3.23.25,3.81-2.94,9-48.92,27.66-130.85,83.48-145.52,38.49-10.12,69.69,7.95,90.9,39.21l27.52,58.79ZM487.17,397.77c-4.49-60.62-9.6-123.69-31.53-180.89-35.43-92.44-114.31-127.92-167.38-24.72-30,58.34-37.83,135.08-39.79,199.79l19.67-51.13c27.34-54.81,75.73-100.45,139.51-66.27,25.97,13.91,43.07,38.32,56.6,63.71l22.92,59.51ZM748.91,436.27c.36-62.16-5.13-126.65-21.19-186.75-13.68-51.19-53.74-140.58-121.5-115.92-76.17,27.72-95.26,189.95-97.76,259.25-.27,7.51-1.3,35.55.39,40.51,1.39,4.1,28.65,12.29,34.6,13.92,51.3,14.06,101.41,15.89,153.72,6.15,18.32-3.41,35.14-8.73,51.73-17.16ZM956.6,414.93c3.48-54.34,1.13-114.35-13.82-166.95-12.09-42.51-41.32-105.01-96.46-85.87-54.13,18.79-69.83,138.71-73.78,188.16-.68,8.51-1.68,18.8-2.04,27.07-.38,8.99-1.52,48.5.39,54.09,1.22,3.55,6.63,4.59,9.83,5.69,26.3,9.04,80.9,7.64,108.36,2.48,22.96-4.31,46.55-14.78,67.52-24.66ZM224.96,436.38c-.33-69.35-1.91-151.55-28.56-216.47-31.52-76.8-95.84-80.91-130.74-3.86-22.74,50.21-27.39,109.11-26.74,163.22.15,12.52-.6,25.11.22,37.6,14.79,7.28,28.92,13.46,44.78,18.29,32.4,9.86,75.38,13.68,108.98,8.95,10.91-1.54,21.38-5.35,32.06-7.72ZM477.48,457.91c-9.12-55.77-31.47-152.58-93.55-171.3-68.75-20.73-105.92,73.2-119.01,124.72-14.6,57.45-18.17,119.09-18.18,178.29,22.1,7.69,44.47,14.6,67.6,18.75,45.01,8.09,109.3,7.13,152.55-8.75,5.23-1.92,19.34-7.46,20.31-12.68,1.6-8.64.47-30.87.07-40.83-.55-13.81-3.36-29.31-4.28-43.26l-87.67-47.2c-15.58-8.84-13.58-28.25,5.31-28.76l76.85,31.01Z"/>
</svg>