<?xml version="1.0" encoding="UTF-8"?>
<svg id="Layer_1" data-name="Layer 1" xmlns="http://www.w3.org/2000/svg" viewBox="0 0 980.79 983.57">
  <defs>
    <style>
      .cls-1 {
        fill: #fff;
      }
    </style>
  </defs>
  <path class="cls-1" d="M903.34,248.74c-.3-5.83-1.24-18.37-2.97-23.53-3.55-10.59-19.57-12.18-24.68-1.92-3.73,7.5-.17,13.64.09,21.2,2.81,81.05-27.66,154.92-62.02,226.36-24.19,50.29-50.94,86.09-53.6,144.61-3.53,77.95-5.08,152.8-25.45,228.93-9.52,35.58-34.28,104.97-76.22,111.39-54.65,8.37-63.1-75.7-68.79-113.59-8.66-57.65-11.41-193.71-96.04-190.1-66.53,2.84-77.59,88.81-85.18,139.51-6.66,44.44-11.1,203.17-93.07,156.36-27.93-15.95-46.92-64.26-55.41-94.04-1.18-4.16-5.74-19.16-5.39-22.21.27-2.39,12.76-8.46,15.83-10.68,25.08-18.12,37.05-50.03,32.87-80.38-.54-3.91-3.09-8.35-2.95-12.61,48.28-41.88,37.19-122.74-21.17-149.27,3.61-59.68-41.84-110.34-101.46-112.99-.02.04-.03.07-.05.11l-9.96-18.21c-19.12-40.61-36.22-83.09-44.39-127.22,10.67-2.56,20.19-7.85,29.93-12.68,26.69,28.51,70.01,34.84,104.2,15.91,44.98-24.91,57.42-84.47,26.81-125.78,29.86-35.78,35.91-85.53,15.94-127.71,62.41-.87,122.55,25.56,175.59,55.99,38.52,22.1,56.98,38.2,104.7,40.51,14.3.69,48.03-.16,61.04-4.78,12.23-4.34,10.18-24.02-1.69-25.95-8.26-1.34-21.88,2.45-30.69,3.1-23.74,1.77-50.99-.13-73.31-9.34-4.03-1.66-7.64-4.39-11.88-5.61v-2.94c65.09-34.73,142.74-65.92,217.39-44.33,11.02,3.19,33.51,16.91,38.49-1.33,4.78-17.54-26.93-24.3-39.56-27.28-85.26-20.09-172.12,15.88-244.53,57.95-24.97-14.59-50.67-28.25-77.61-38.93-31.4-12.45-68.65-23.03-102.52-24.67-6.01-.29-11.38,1.61-17.53.05l3.18,6.34c-4.49-.92-3.13,5.11-8.46,2.65-5.44-2.52-1.78-8.63-2.14-8.99l-8.47,1.06c1.53,1.61,11.22,11.13,9.53,12.7-2.66,2.49-7.99-9.12-11.11-8.47-5.65,1.18,6.86,10.41,4.75,12.71-4.82.13-6.69-9.44-11.11-8.47-5.52,1.2,10.56,13.18,2.1,12.74l-9.01-12.73c3.4,0,4.03-1.9,5.89-4.12l3.64.93c-.34-3.68.2-5.57,4.24-5.32C242.88.37,176.42-5.73,129.24,26.93c-32.65,22.6-50.9,60.62-49.62,100.35C22.06,139.71-12.92,196.95,4.49,254.1c12.26,40.24,49.21,67.37,91.02,69.55,7.85,37.96,20.69,75.27,36,110.8,3.87,8.99,9.01,22.78,13.75,30.76.66,1.11,1.46,2.08,2.32,3-6.56,2.36-12.25,5.24-12.25,5.24-1.55.67-2.99,1.33-4.01,1.77-42.51,18.34-67.35,64.68-60.96,110.48.81,5.8,5.42,18.28,5.14,22.34-.15,2.09-8.49,16.31-10.01,20.74-15.76,45.6,3.88,97.26,46.06,120.3,8.79,4.8,18.03,7.05,27.06,11.1l4.72,20.72c4.72,20.72,20.74,33.31,20.74,33.31,11.19,10.67,30.19,20.47,45.65,22.18,3.9.43,16.16-.92,17.92,1.16,1.14,1.35,7.71,29.16,9.3,34.16,10.42,32.78,26.58,69.33,53.19,92.01,1.76,1.5,5.14,4.15,8.99,6.66.4.27.82.54,1.27.81,3.04,1.91,6.28,3.65,9.21,4.67,12.49,5.37,23.5,6.7,23.5,6.7h0c18.94,2.86,40.01-3.46,54.05-16.21,38.69-35.13,42.08-132.32,49.94-182.18,4.49-28.48,14.1-92.43,45.91-102.48,53.48-16.89,65.75,63.72,71.45,99.31,10.28,64.17,11.31,228.28,116.76,199.13,27.06-7.48,46.12-29.39,60.14-52.92h0c24.54-31.87,33.14-89.64,33.14-89.64h0c7.26-29.52,12.49-62.79,15.86-92.77,5.13-45.69,4.61-90.21,7.44-135.64,2.62-41.9,22.43-68.43,39.96-104.19,37.17-75.82,79.98-170.02,75.6-256.23ZM84.79,154.19c7.84-1.67,16.42.65,21.47-7.15,3.82-5.9.39-24.34,1.01-32.9,3.06-42.3,39.58-77.37,81.44-80.72,71.08-5.69,119.71,71.53,83.74,133.55-5.13,8.84-12.22,13.81-17.18,20.97-9.38,13.54,4.01,20.58,10.15,30.99,34.56,58.6-41.07,118.3-89.77,72.81-6.23-5.82-9.83-16.05-19.18-16.93-7.69-.73-21.89,12.78-31.15,16.36C29.47,328.3-15.8,175.63,84.79,154.19ZM133.11,486.07c-.56.15-1.12.3-1.69.46.08-.11.16-.23.26-.34l1.43-.11ZM200.31,805.51c-9.56-3.78-20.45-13.65-28.37-20.38-1.11-.94-2.81-2.86-4.51-4.75,0,0,0,0,0,0-1.72-4.36-2.09-11.06-1.92-17.6.73-1.7.52-3.66.29-5.78.56-7.86,1.63-14.3,1.63-14.3h0c1.46-6.05,3.07-12.32,2.17-16.72-2.17-10.56-18.43-12.53-24.16-4.51-1.76,2.46-2.36,9.29-4.91,10.01-40.18-11.08-63.26-54.6-49.11-94.24,4.36.77,5.29,5.86,9.64,7.82,9.35,4.22,19.48-.99,20.07-11.57.44-7.8-10.12-16.8-14.21-23.95-20.03-35.02-9.92-77.59,21.38-101.12l19.82-10.6c41.41-14.2,87.73,7.57,100.47,50.61,4.7,15.86,1.03,25.13,1.72,39.56.56,11.81,12,12.42,20.24,16.92,35.51,19.36,44.1,66.15,17.48,97.01-6.74,7.82-19.37,11.87-18.13,23.32.5,4.62,3.47,8.47,4.58,12.46,12.57,45.18-29.99,85.29-74.18,67.82ZM730.88,866.71c.04-.39.18-.75.4-1.06l-.4,1.06Z"/>
  <path class="cls-1" d="M970.84,646.22c-.08-.08-.14-.17-.23-.25-.24-.2-2.09-.96-4.01-1.67-3.89-1.63-7.95-3.12-11.31-5.15-.29-.18-.58-.37-.88-.55-4.55-3.71-9.21-7.13-13.48-11.17-5.28-5-10.44-10.57-14.43-16.84-5.13-8.08-8.84-25.58-18.6-27-2.2-.32-4.12-.25-5.81.11-7.32,1.15-10.05,7.79-12.71,14.68-1.21,2.94-2.38,5.94-3.77,8.63-4.84,8.69-12.85,17.77-21.51,24.94-.17.14-.34.28-.51.42-.21.17-.42.33-.63.5-3.71,2.94-7.55,5.55-11.37,7.68-4.57,2.55-10.82,4.2-15.58,7.11-4.98,2.84-8.29,6.83-6.86,14.59,0,0,0,.01,0,.02.11.61.24,1.23.42,1.89,2.02,7.7,15.69,10.8,22.47,14.62,11.4,6.44,25.08,19.42,31.96,30.58,4.7,7.62,7.45,22.8,16.33,25.38,2.42.8,5.43.85,9.28-.16,7.7-2.02,10.8-15.69,14.62-22.47,3.2-5.67,8.02-11.9,13.43-17.58.1-.1.19-.2.29-.3.39-.41.79-.81,1.18-1.21.43-.43.86-.87,1.3-1.29.15-.14.29-.28.44-.42.55-.53,1.1-1.05,1.66-1.57.09-.08.18-.16.27-.25,3.35-3.09,6.94-5.99,10.79-8.43,4.22-2.68,11.03-4.98,16.76-7.95,3.82-1.88,7.17-4.11,8.92-7.13.67-1.08,1.13-2.24,1.31-3.51,1.28-8.83-3.48-13.12-9.74-16.26ZM932.46,662.85c-6.83,4.22-12.36,10.57-18.14,16.06l-4.41,5.41-5.72,5.45c-5.44-7.17-11.46-13.85-18.04-19.95-.3-.31-.6-.61-.89-.92l-1.49-1.21c-3.26-2.91-6.64-5.69-10.15-8.31,2.2-1.65,4.35-3.37,6.45-5.13,7.37-6.05,14.1-12.8,20.12-20.21,1.59-1.93,3.16-3.88,4.66-5.89,7.37,10.11,15.97,19.14,25.69,26.97l4.78,5.02-2.87,2.73Z"/>
  <path class="cls-1" d="M926.78,125.72c-.1-.1-.18-.22-.29-.32-.31-.26-2.69-1.23-5.16-2.15-5.01-2.1-10.24-4.02-14.57-6.63-.38-.23-.75-.48-1.13-.71-5.86-4.78-11.85-9.17-17.36-14.38-6.8-6.43-13.45-13.61-18.58-21.68-6.61-10.4-11.38-32.93-23.94-34.76-2.84-.41-5.3-.32-7.48.14-9.43,1.48-12.94,10.02-16.36,18.91-1.56,3.78-3.06,7.64-4.86,11.11-6.23,11.19-16.55,22.88-27.69,32.11-.22.18-.43.36-.65.54-.27.22-.54.43-.81.64-4.78,3.79-9.72,7.15-14.64,9.89-5.89,3.28-13.92,5.41-20.06,9.15-6.41,3.65-10.68,8.79-8.84,18.79,0,0,0,.02,0,.03.15.78.31,1.59.54,2.43,2.61,9.92,20.2,13.9,28.93,18.83,14.68,8.29,32.29,25.01,41.14,39.37,6.05,9.81,9.59,29.35,21.02,32.67,3.12,1.03,6.99,1.1,11.95-.2,9.92-2.61,13.9-20.2,18.83-28.93,4.12-7.3,10.33-15.32,17.29-22.63.12-.13.25-.26.37-.38.5-.52,1.01-1.04,1.52-1.55.55-.56,1.11-1.11,1.67-1.67.19-.18.38-.36.56-.55.7-.68,1.41-1.36,2.13-2.03.12-.11.23-.21.35-.32,4.32-3.98,8.94-7.71,13.9-10.86,5.44-3.46,14.2-6.41,21.58-10.24,4.92-2.42,9.23-5.29,11.49-9.18.86-1.39,1.45-2.89,1.69-4.52,1.65-11.37-4.48-16.89-12.54-20.94ZM877.37,147.13c-8.8,5.43-15.91,13.6-23.35,20.68l-5.68,6.97-7.36,7.01c-7-9.23-14.76-17.83-23.23-25.69-.38-.4-.77-.79-1.14-1.19l-1.92-1.56c-4.2-3.74-8.55-7.33-13.07-10.71,2.84-2.12,5.59-4.34,8.31-6.61,9.49-7.79,18.16-16.48,25.9-26.03,2.05-2.48,4.07-5,6-7.59,9.49,13.01,20.56,24.64,33.07,34.72l6.16,6.46-3.69,3.51Z"/>
  <path class="cls-1" d="M615.54,372.26c-4.81,0-10.93,9.38-10.93,14.31-.01,15.97,17.85,12.33,27.96,14.24.88,10.95-2.03,25.79,13.13,27.15,6.06.55,14.89-5.73,14.89-11.72v-16.43h17.49c2.82,0,9.15-6.24,9.84-9.23,4.13-17.86-14.31-19.91-27.33-18.32.56-12.22,1.25-28.52-15.39-27.64-5.05.27-11.27,5.1-12.16,10.14-.89,5.02.65,12.18,0,17.49h-17.49Z"/>
  <path class="cls-1" d="M513.28,718.29c-1.28-8.59-8.74-13.67-17.27-11.92-4.77.98-9.5,6.15-10.24,10.95,2.03,23.92-2.94,52.97-.09,76.27,2.14,17.48,25.16,17.34,27.49.94,3.25-22.88-2.25-52.62.12-76.24Z"/>
  <path class="cls-1" d="M513.16,894.36c-2.09-11.14-15.66-16.19-23.92-7.69-1.95,2.01-3.22,5.85-3.54,8.65-2.68,23.6,1.95,52.11.07,76.25,3.67,15.62,25.18,15.21,27.4-1.09,3.12-22.99-2.06-52.44,0-76.12Z"/>
  <path class="cls-1" d="M485.66,439.61c1.69,18,23.41,18.51,27.5,1.98-1.42-23.9,2.22-50.58.14-74.14-.87-9.81-7.08-16.16-17.29-14.02-5.64,1.18-9.51,6.56-10.21,12.03,1.52,23.8-2.34,50.72-.13,74.14Z"/>
  <path class="cls-1" d="M513.31,543.38c-.73-7.6-7.07-14.75-15.18-14.02-6.05.55-11.65,5.89-12.34,12.05,1.6,24.08-2.44,51.54-.15,75.21,1.63,16.82,23.54,17.94,27.54,2-1.64-24.1,2.41-51.54.12-75.24Z"/>
  <path class="cls-1" d="M485.66,262.6c1.71,19.3,25.25,18.55,27.51,1.98-1.43-23.9,2.22-50.58.14-74.14-.82-9.24-6.42-15.58-16.21-14.01-5.91.95-10,5.18-11.32,10.95,1.5,24.25-2.23,51.32-.11,75.23Z"/>
  <path class="cls-1" d="M513.19,62.17c1.25-8.07,1.25-42.66,0-50.74-1.3-8.42-10.18-13.01-18.22-10.94-3.92,1.01-8.58,6.92-9.2,10.94-1.33,8.61-1.18,40.82.03,49.65,2.3,16.92,25.1,15.9,27.4,1.09Z"/>
  <path class="cls-1" d="M824.59,181.64c-5.16,1.01-8.32,8-3.36,11.48l9.99-6.91c-.86-3.05-3.44-5.19-6.63-4.57Z"/>
</svg>