<?xml version="1.0" encoding="UTF-8"?>
<svg id="Layer_1" data-name="Layer 1" xmlns="http://www.w3.org/2000/svg" viewBox="0 0 1010.59 958.8">
  <defs>
    <style>
      .cls-1 {
        fill: #fff;
      }
    </style>
  </defs>
  <path class="cls-1" d="M534.33,833.06c-8.14,0-15.6-5.17-18.47-12.72-2.95-7.75-.52-16.84,5.95-22.08,6.42-5.2,15.54-5.85,22.66-1.65,7.08,4.17,10.84,12.65,9.21,20.66-1.84,9.05-10.03,15.8-19.34,15.8Z"/>
  <path class="cls-1" d="M813.47,231.83c-41.89-46.65-99.57-72.34-162.38-72.34-8.81,0-35.62,0-120.77,52.39-29.37,18.07-65.85,18.07-95.22,0-85.14-52.39-111.96-52.39-120.77-52.39-62.82,0-120.49,25.69-162.39,72.34-39.48,43.96-61.23,101.73-61.23,162.66,0,73.26,49.21,131.73,96.8,188.28,6.59,7.83,12.68,14.87,18.56,21.67,39.27,45.41,57.19,66.14,57.19,129.21v31.55c0,46.67,16.77,91.88,47.23,127.31,30.11,35.03,71.75,58.48,117.22,66.02,5.72.95,11.58-.65,16-4.38,4.43-3.73,6.98-9.2,6.98-14.98v-254.58c0-17.67,13.94-32.42,31.09-32.88,8.73-.23,16.98,2.96,23.22,9,6.25,6.05,9.69,14.15,9.69,22.76l-.13,40.37c-.03,10.84,8.78,19.65,19.68,19.68h.06c10.87,0,19.7-8.75,19.74-19.56l.13-40.44c0-19.36-7.69-37.45-21.64-50.95-13.95-13.49-32.35-20.62-51.83-20.1-38.31,1.05-69.48,33.4-69.48,72.12v229.64c-64.07-20.67-108.49-80.06-108.49-149.03v-31.55c0-77.63-25.12-106.67-66.73-154.8-5.8-6.71-11.8-13.65-18.22-21.27-52.91-62.87-87.6-108.19-87.6-163.09,0-51.28,18.18-99.76,51.19-136.52,34.31-38.2,81.52-59.23,132.94-59.23,4.95,0,23.69,2.51,74.13,31.18l11.33,12.96c32.03,36.65,74.18,61.52,121.88,71.9,16.12,3.51,32.35,5.25,48.5,5.25,31.65,0,62.98-6.7,92.45-19.94,9.93-4.46,14.35-16.09,9.86-25.97-4.49-9.88-16.18-14.27-26.11-9.81-50.39,22.64-106.02,21.67-153.57,0,20.24-1.58,40.21-7.94,58.3-19.07,70.15-43.16,94.27-46.51,99.99-46.51,51.42,0,98.64,21.04,132.94,59.23,33.02,36.76,51.2,85.24,51.2,136.52,0,54.9-34.68,100.22-87.59,163.09-6.42,7.63-12.42,14.57-18.22,21.27-41.62,48.12-66.73,77.17-66.73,154.8v31.55c0,69.01-44.46,128.42-108.58,149.06l-.04-12.1c-.04-10.82-8.87-19.56-19.74-19.56h-.07c-10.9.03-19.71,8.85-19.67,19.69l.13,36.94c.02,5.76,2.58,11.21,7.01,14.93,3.59,3.01,8.1,4.63,12.73,4.63,1.08,0,2.17-.09,3.25-.26,45.48-7.54,87.11-30.99,117.22-66.02,30.46-35.43,47.23-80.65,47.23-127.31v-31.56c0-63.06,17.92-83.79,57.19-129.2,5.89-6.81,11.97-13.85,18.56-21.68,47.59-56.55,96.8-115.02,96.8-188.28,0-60.93-21.75-118.7-61.23-162.66Z"/>
  <path class="cls-1" d="M107.97,913.7c-7.4,0-14.18-4.11-17.56-10.66l-27.05-52.36-52.65-26.9c-6.58-3.36-10.72-10.1-10.72-17.46s4.14-14.09,10.72-17.46l52.65-26.9,27.05-52.36c3.38-6.55,10.16-10.66,17.56-10.66s14.18,4.11,17.56,10.66l27.05,52.36,52.65,26.9c6.58,3.36,10.72,10.1,10.72,17.46s-4.14,14.09-10.72,17.46l-52.65,26.9-27.05,52.36c-3.38,6.55-10.16,10.66-17.56,10.66ZM62.92,806.32l24.13,12.33c3.67,1.88,6.65,4.84,8.53,8.49l12.39,23.99,12.39-23.99c1.89-3.65,4.87-6.61,8.53-8.49l24.13-12.33-24.13-12.33c-3.67-1.88-6.65-4.84-8.53-8.49l-12.39-23.99-12.39,23.99c-1.89,3.65-4.87,6.61-8.53,8.49l-24.13,12.33Z"/>
  <path class="cls-1" d="M882.88,254.01c-7.4,0-14.18-4.11-17.56-10.66l-33.75-65.33-65.68-33.56c-6.58-3.36-10.72-10.1-10.72-17.46s4.14-14.09,10.72-17.46l65.68-33.57,33.75-65.33c3.38-6.54,10.16-10.66,17.56-10.66s14.18,4.11,17.55,10.66l33.75,65.33,65.69,33.57c6.58,3.36,10.71,10.1,10.71,17.46s-4.13,14.09-10.71,17.46l-65.69,33.56-33.75,65.33c-3.38,6.55-10.16,10.66-17.55,10.66ZM818.09,127.01l37.16,18.99c3.67,1.87,6.65,4.84,8.53,8.49l19.09,36.95,19.09-36.95c1.88-3.65,4.87-6.61,8.53-8.49l37.17-18.99-37.17-18.99c-3.66-1.87-6.65-4.84-8.53-8.49l-19.09-36.95-19.09,36.95c-1.88,3.65-4.86,6.61-8.53,8.49l-37.16,18.99Z"/>
</svg>